Recursive Sans-Casual Bold Italic.ufo
<glyph name="period" format="2">
  <advance width="350.0"/>
  <unicode hex="002E"/>
  <outline>
    <contour>
      <point x="194.90566037735846" y="0.6037735849056602" type="curve"/>
      <point x="211.99999999999997" y="67.13207547169812" type="line" smooth="yes"/>
      <point x="234.73584905660374" y="156.0754716981132"/>
      <point x="207.90566037735846" y="191.66037735849056"/>
      <point x="143.28301886792448" y="191.66037735849056" type="curve" smooth="yes"/>
      <point x="113.15094339622642" y="191.66037735849056"/>
      <point x="91.11320754716982" y="188.81132075471697"/>
      <point x="68.77358490566039" y="183.11320754716982" type="curve"/>
      <point x="53.132075471698116" y="118.69811320754715" type="line" smooth="yes"/>
      <point x="29.79245283018869" y="23.339622641509433"/>
      <point x="58.377358490566046" y="-10.094339622641508"/>
      <point x="124.03773584905662" y="-10.094339622641508" type="curve" smooth="yes"/>
      <point x="152.62264150943398" y="-10.094339622641508"/>
      <point x="175.11320754716982" y="-5.396226415094339"/>
    </contour>
  </outline>
</glyph>
<glyph name="F" format="2">
  <advance width="550.0"/>
  <unicode hex="0046"/>
  <outline>
    <contour>
      <point x="196.41509433962264" y="-0.1509433962264155" type="curve"/>
      <point x="191.41509433962264" y="29.641509433962263"/>
      <point x="192.11320754716982" y="63.9433962264151"/>
      <point x="196.81132075471697" y="95.69811320754718" type="curve" smooth="yes"/>
      <point x="217.35849056603774" y="224.03773584905662"/>
      <point x="287.62264150943395" y="347.47169811320754"/>
      <point x="305.0943396226415" y="472.5094339622641" type="curve" smooth="yes"/>
      <point x="311.0" y="513.5660377358491"/>
      <point x="304.3018867924529" y="544.8490566037736"/>
      <point x="286.566037735849" y="564.4905660377358" type="curve"/>
      <point x="304.41509433962267" y="598.3396226415093" type="line"/>
      <point x="194.58490566037736" y="596.8301886792452" type="line"/>
      <point x="167.98113207547172" y="399.50943396226415"/>
      <point x="80.0" y="274.0377358490566"/>
      <point x="56.81132075471699" y="110.01886792452831" type="curve" smooth="yes"/>
      <point x="47.01886792452831" y="41.83018867924528"/>
      <point x="68.84905660377358" y="-7.849056603773585"/>
      <point x="143.45283018867923" y="-7.849056603773585" type="curve" smooth="yes"/>
      <point x="161.49056603773585" y="-7.849056603773585"/>
      <point x="180.37735849056602" y="-5.849056603773584"/>
    </contour>
    <contour>
      <point x="146.86792452830187" y="700.0" type="line"/>
      <point x="138.77358490566036" y="688.3584905660377"/>
      <point x="132.37735849056605" y="676.7169811320755"/>
      <point x="126.9811320754717" y="656.9811320754716" type="curve" smooth="yes"/>
      <point x="113.49056603773586" y="607.566037735849"/>
      <point x="132.0754716981132" y="569.3396226415094"/>
      <point x="176.54716981132077" y="569.3396226415094" type="curve"/>
      <point x="585.0566037735849" y="569.3396226415094" type="line"/>
      <point x="592.6037735849056" y="581.9811320754718"/>
      <point x="600.6981132075471" y="599.1698113207547"/>
      <point x="605.2452830188679" y="618.0566037735849" type="curve" smooth="yes"/>
      <point x="616.8867924528302" y="663.9245283018869"/>
      <point x="600.1509433962265" y="700.0"/>
      <point x="554.4716981132076" y="700.0" type="curve"/>
    </contour>
    <contour>
      <point x="214.92452830188677" y="342.45283018867923" type="line"/>
      <point x="172.90566037735846" y="211.79245283018867" type="line"/>
      <point x="446.50943396226415" y="211.79245283018867" type="line"/>
      <point x="452.0566037735849" y="220.8867924528302"/>
      <point x="459.1509433962264" y="240.62264150943398"/>
      <point x="462.6981132075471" y="256.811320754717" type="curve"/>
      <point x="473.18867924528297" y="302.37735849056605"/>
      <point x="461.54716981132077" y="342.45283018867923"/>
      <point x="401.88679245283015" y="342.45283018867923" type="curve"/>
    </contour>
  </outline>
</glyph>
<glyph name="N" format="2">
  <advance width="650.0"/>
  <unicode hex="004E"/>
  <anchor x="430.35849056603774" y="711.0" name="top"/>
  <anchor x="281.6981132075472" y="-1.0" name="bottom"/>
  <outline>
    <contour>
      <point x="168.81132075471697" y="-0.7547169811320762" type="curve"/>
      <point x="164.2641509433962" y="33.20754716981132"/>
      <point x="163.71698113207543" y="77.0"/>
      <point x="171.01886792452828" y="129.45283018867926" type="curve"/>
      <point x="186.58473281207546" y="233.58369572234903"/>
      <point x="226.47169811320754" y="320.8679245283019"/>
      <point x="241.03773584905665" y="476.3018867924528" type="curve"/>
      <point x="211.60377358490567" y="452.3396226415095" type="line"/>
      <point x="275.92452830188677" y="458.28301886792457" type="line"/>
      <point x="242.8867924528302" y="487.3396226415095" type="line"/>
      <point x="251.2264150943396" y="306.6792452830189"/>
      <point x="297.18867924528297" y="146.35849056603772"/>
      <point x="357.7169811320755" y="46.52830188679245" type="curve" smooth="yes"/>
      <point x="379.66037735849056" y="8.943396226415093"/>
      <point x="420.28301886792457" y="-10.0"/>
      <point x="473.9056603773585" y="-10.150943396226415" type="curve" smooth="yes"/>
      <point x="498.188679245283" y="-10.150943396226415"/>
      <point x="515.679245283019" y="-6.452830188679246"/>
      <point x="529.3207547169811" y="-0.7547169811320766" type="curve"/>
      <point x="525.4716981132076" y="31.698113207547173"/>
      <point x="531.5660377358491" y="71.84905660377358"/>
      <point x="539.4150943396227" y="116.24528301886792" type="curve"/>
      <point x="568.867924528302" y="284.75471698113205"/>
      <point x="646.1509433962265" y="422.07547169811323"/>
      <point x="669.6226415094341" y="575.4528301886792" type="curve"/>
      <point x="685.1320754716982" y="676.2452830188679"/>
      <point x="655.2075471698114" y="708.3018867924528"/>
      <point x="595.7924528301888" y="708.3018867924528" type="curve"/>
      <point x="567.4150943396227" y="708.3018867924528"/>
      <point x="549.9245283018869" y="704.6037735849056"/>
      <point x="536.2830188679245" y="700.754716981132" type="curve"/>
      <point x="536.132075471698" y="634.0754716981131"/>
      <point x="525.8867924528302" y="574.433962264151"/>
      <point x="508.03773584905656" y="505.79245283018867" type="curve"/>
      <point x="475.4716981132075" y="383.0377358490566"/>
      <point x="442.9622641509434" y="285.0"/>
      <point x="436.1698113207548" y="153.47169811320754" type="curve"/>
      <point x="461.30188679245276" y="178.47169811320754" type="line"/>
      <point x="406.28301886792445" y="172.52830188679243" type="line"/>
      <point x="441.1698113207547" y="152.43396226415092" type="line"/>
      <point x="382.35849056603774" y="279.2264150943396"/>
      <point x="359.32075471698107" y="409.3018867924527"/>
      <point x="355.11320754716985" y="559.0754716981133" type="curve" smooth="yes"/>
      <point x="352.11320754716974" y="670.867924528302"/>
      <point x="308.3018867924528" y="708.3018867924528"/>
      <point x="212.9622641509434" y="708.3018867924528" type="curve" smooth="yes"/>
      <point x="190.77358490566039" y="708.3018867924528"/>
      <point x="167.8867924528302" y="704.7547169811321"/>
      <point x="154.73584905660377" y="700.7547169811321" type="curve"/>
      <point x="156.28301886792457" y="667.4528301886792"/>
      <point x="153.9811320754717" y="629.6981132075472"/>
      <point x="147.37735849056602" y="588.9433962264151" type="curve"/>
      <point x="117.32075471698114" y="411.1132075471698"/>
      <point x="43.584905660377366" y="270.6792452830189"/>
      <point x="23.377358490566046" y="123.69811320754718" type="curve"/>
      <point x="9.924528301886802" y="21.905660377358494"/>
      <point x="46.490566037735846" y="-10.0"/>
      <point x="101.9622641509434" y="-10.0" type="curve"/>
      <point x="123.84905660377356" y="-10.0"/>
      <point x="147.83018867924525" y="-7.150943396226415"/>
    </contour>
  </outline>
</glyph>
<glyph name="R" format="2">
  <advance width="600.0"/>
  <unicode hex="0052"/>
  <anchor x="407.8754007856906" y="711.0" name="top"/>
  <anchor x="229.86791401317737" y="-1.0" name="bottom"/>
  <outline>
    <contour>
      <point x="401.1132075471698" y="283.15094339622647" type="curve"/>
      <point x="299.622641509434" y="227.0" type="line"/>
      <point x="298.33962264150944" y="161.6981132075472"/>
      <point x="301.7547169811321" y="112.09433962264151"/>
      <point x="320.86792452830184" y="57.54716981132074" type="curve" smooth="yes"/>
      <point x="338.5283018867924" y="6.603773584905662"/>
      <point x="373.8679245283019" y="-18.490566037735846"/>
      <point x="425.20754716981133" y="-18.490566037735846" type="curve" smooth="yes"/>
      <point x="448.6037735849056" y="-18.490566037735846"/>
      <point x="468.2452830188679" y="-10.943396226415093"/>
      <point x="483.18867924528297" y="3.9999999999999996" type="curve" smooth="yes"/>
      <point x="498.6792452830188" y="19.490566037735846"/>
      <point x="511.1698113207547" y="42.77358490566037"/>
      <point x="519.2641509433962" y="75.99999999999999" type="curve" smooth="yes"/>
      <point x="524.6603773584906" y="96.03773584905659"/>
      <point x="527.3584905660377" y="113.67924528301886"/>
      <point x="527.2075471698114" y="132.86792452830187" type="curve"/>
      <point x="521.5094339622641" y="132.86792452830187" type="line"/>
      <point x="509.3584905660377" y="125.11320754716981"/>
      <point x="496.3018867924529" y="121.35849056603773"/>
      <point x="479.45283018867923" y="121.35849056603773" type="curve" smooth="yes"/>
      <point x="451.3584905660377" y="121.35849056603773"/>
      <point x="433.35849056603774" y="135.35849056603772"/>
      <point x="421.6037735849056" y="171.69811320754715" type="curve"/>
      <point x="408.5849056603773" y="208.2641509433962"/>
      <point x="403.9245283018868" y="244.16981132075472"/>
    </contour>
    <contour>
      <point x="134.35849056603774" y="700.0" type="curve"/>
      <point x="127.11320754716981" y="683.9622641509435"/>
      <point x="120.8679245283019" y="668.9245283018869"/>
      <point x="116.32075471698114" y="648.88679245283" type="curve"/>
      <point x="102.98113207547172" y="596.9245283018868"/>
      <point x="108.98113207547172" y="569.6415094339623"/>
      <point x="137.56603773584905" y="569.6415094339623" type="curve" smooth="yes"/>
      <point x="161.1112422616981" y="569.6415094339623"/>
      <point x="254.11320754716976" y="589.6415094339623"/>
      <point x="349.0754716981132" y="589.6415094339623" type="curve"/>
      <point x="398.9056603773585" y="589.6415094339623"/>
      <point x="431.5660377358491" y="583.9811320754717"/>
      <point x="459.52830188679246" y="571.6603773584907" type="curve" smooth="yes"/>
      <point x="462.49056603773585" y="553.188679245283"/>
      <point x="460.7924528301887" y="530.1698113207547"/>
      <point x="453.7358490566038" y="501.49056603773585" type="curve" smooth="yes"/>
      <point x="449.73584905660374" y="486.188679245283" type="line" smooth="yes"/>
      <point x="419.37735849056605" y="362.6981132075471"/>
      <point x="340.60377358490564" y="311.1320754716981"/>
      <point x="261.5471698113207" y="311.1320754716981" type="curve"/>
      <point x="222.3396226415094" y="311.1320754716981"/>
      <point x="211.67924528301884" y="314.28301886792457"/>
      <point x="188.0377358490566" y="326.6792452830189" type="curve"/>
      <point x="154.50943396226415" y="203.22641509433964" type="line" smooth="yes"/>
      <point x="209.86792452830187" y="218.9622641509434" type="line"/>
      <point x="227.71698113207543" y="200.9622641509434"/>
      <point x="259.75471698113205" y="194.35849056603774"/>
      <point x="284.8679245283019" y="194.35849056603774" type="curve" smooth="yes"/>
      <point x="414.3207547169812" y="194.35849056603774"/>
      <point x="543.3396226415094" y="296.7547169811321"/>
      <point x="590.9811320754718" y="486.77358490566036" type="curve" smooth="yes"/>
      <point x="594.5849056603773" y="501.1886792452831" type="line" smooth="yes"/>
      <point x="618.7358490566038" y="597.6415094339623"/>
      <point x="570.6226415094338" y="720.0"/>
      <point x="369.4150943396226" y="720.0" type="curve"/>
      <point x="289.188679245283" y="720.0"/>
      <point x="221.28301886792454" y="713.6037735849058"/>
    </contour>
    <contour>
      <point x="171.377358490566" y="0.0" type="curve"/>
      <point x="166.37735849056602" y="29.79245283018868"/>
      <point x="167.0754716981132" y="63.94339622641509"/>
      <point x="171.77358490566036" y="95.69811320754718" type="curve"/>
      <point x="193.1698113207547" y="229.13207547169813"/>
      <point x="263.28301886792445" y="357.66037735849056"/>
      <point x="281.60377358490564" y="487.7924528301888" type="curve"/>
      <point x="287.4649698634434" y="528.4933438129528"/>
      <point x="280.7169811320755" y="560.245283018868"/>
      <point x="262.377358490566" y="580.0377358490565" type="curve" smooth="yes"/>
      <point x="280.2264150943396" y="615.2830188679245" type="line"/>
      <point x="175.64150943396226" y="598.4905660377358" type="line"/>
      <point x="148.8867924528302" y="401.1698113207547"/>
      <point x="60.9056603773585" y="274.0377358490566"/>
      <point x="37.71698113207548" y="110.01886792452831" type="curve" smooth="yes"/>
      <point x="27.924528301886802" y="41.830188679245275"/>
      <point x="43.81132075471699" y="-7.698113207547169"/>
      <point x="118.41509433962264" y="-7.698113207547169" type="curve" smooth="yes"/>
      <point x="136.45283018867923" y="-7.698113207547169"/>
      <point x="155.33962264150944" y="-5.698113207547169"/>
    </contour>
  </outline>
</glyph>
<glyph name="Y" format="2">
  <advance width="650.0"/>
  <unicode hex="0059"/>
  <anchor x="422.66037735849056" y="711.8490566037735" name="top"/>
  <anchor x="211.86792452830193" y="-145.24528301886792" name="dot"/>
  <anchor x="435.5660377358491" y="770.0" name="hook"/>
  <anchor x="246.50943396226415" y="-1.0" name="bottom"/>
  <outline>
    <contour>
      <point x="337.3018867924528" y="0.0" type="curve"/>
      <point x="330.30188679245276" y="33.0"/>
      <point x="333.30188679245276" y="70.39622641509433"/>
      <point x="342.15094339622635" y="109.24528301886792" type="curve"/>
      <point x="353.15094339622635" y="160.0943396226415"/>
      <point x="365.84905660377353" y="203.7924528301887"/>
      <point x="389.4905660377358" y="252.0943396226415" type="curve"/>
      <point x="259.2830188679245" y="253.9433962264151" type="line"/>
      <point x="225.54716981132077" y="196.58490566037736"/>
      <point x="203.45283018867926" y="148.41509433962264"/>
      <point x="195.00000000000003" y="89.90566037735847" type="curve" smooth="yes"/>
      <point x="186.4528301886793" y="32.283018867924525"/>
      <point x="192.90566037735852" y="-7.547169811320754"/>
      <point x="283.188679245283" y="-7.547169811320754" type="curve" smooth="yes"/>
      <point x="304.62264150943395" y="-7.547169811320754"/>
      <point x="320.9622641509434" y="-4.698113207547169"/>
    </contour>
    <contour>
      <point x="158.24528301886792" y="700.0" type="curve"/>
      <point x="125.20754716981132" y="471.7924528301887"/>
      <point x="157.88679245283018" y="330.1320754716981"/>
      <point x="225.8679245283019" y="239.64150943396228" type="curve"/>
      <point x="255.8867924528302" y="199.2830188679245"/>
      <point x="285.1132075471698" y="195.73584905660377"/>
      <point x="347.62264150943395" y="194.9811320754717" type="curve"/>
      <point x="475.8301886792453" y="284.92452830188677"/>
      <point x="614.1509433962265" y="446.377358490566"/>
      <point x="673.3773584905659" y="614.3207547169811" type="curve"/>
      <point x="697.2075471698115" y="682.9622641509435"/>
      <point x="668.2830188679246" y="707.5471698113207"/>
      <point x="602.0377358490566" y="707.5471698113207" type="curve"/>
      <point x="576.4528301886793" y="707.5471698113207"/>
      <point x="560.1132075471698" y="704.6981132075472"/>
      <point x="540.3773584905659" y="699.1509433962264" type="curve"/>
      <point x="486.24528301886795" y="527.320754716981"/>
      <point x="424.6981132075472" y="422.35849056603774"/>
      <point x="309.79245283018867" y="296.41509433962267" type="curve"/>
      <point x="360.8301886792452" y="316.0566037735849" type="line"/>
      <point x="295.6981132075472" y="328.54716981132077" type="line"/>
      <point x="331.7924528301887" y="295.2641509433962" type="line"/>
      <point x="276.8867924528302" y="406.64150943396226"/>
      <point x="270.7547169811321" y="497.05660377358487"/>
      <point x="282.8113207547169" y="611.2830188679246" type="curve"/>
      <point x="290.60377358490564" y="689.6603773584906"/>
      <point x="262.32075471698107" y="707.5471698113207"/>
      <point x="217.35849056603774" y="707.5471698113207" type="curve" smooth="yes"/>
      <point x="196.8679245283019" y="707.5471698113207"/>
      <point x="177.98113207547172" y="705.5471698113207"/>
    </contour>
  </outline>
</glyph>
<glyph name="Z" format="2">
  <advance width="600.0"/>
  <unicode hex="005A"/>
  <anchor x="410.2716272007849" y="711.0" name="top"/>
  <anchor x="241.75471698113208" y="0.0" name="bottom"/>
  <outline>
    <contour>
      <point x="479.1509433962264" y="0.0" type="line"/>
      <point x="482.6981132075471" y="7.245283018867924"/>
      <point x="486.24528301886795" y="16.339622641509436"/>
      <point x="488.9433962264151" y="27.830188679245275" type="curve" smooth="yes"/>
      <point x="503.2830188679245" y="87.18867924528301"/>
      <point x="494.188679245283" y="134.60377358490567"/>
      <point x="431.22641509433964" y="134.60377358490567" type="curve"/>
      <point x="324.79245283018867" y="134.60377358490567" type="line"/>
      <point x="275.01886792452825" y="134.60377358490567"/>
      <point x="213.3584905660377" y="125.26415094339623"/>
      <point x="131.56603773584908" y="106.92452830188678" type="curve"/>
      <point x="157.28301886792454" y="88.22641509433961" type="line"/>
      <point x="138.18867924528303" y="147.8679245283019" type="line"/>
      <point x="125.98113207547166" y="106.01886792452827" type="line"/>
      <point x="209.9811320754717" y="151.24528301886792"/>
      <point x="289.3396226415095" y="205.622641509434"/>
      <point x="357.16981132075466" y="260.28301886792457" type="curve" smooth="yes"/>
      <point x="496.1886792452831" y="366.0566037735849"/>
      <point x="603.433962264151" y="482.09433962264154"/>
      <point x="619.377358490566" y="552.6603773584906" type="curve"/>
      <point x="622.0754716981133" y="564.3018867924528" type="line" smooth="yes"/>
      <point x="638.11320754717" y="632.5471698113208"/>
      <point x="641.245283018868" y="700.0"/>
      <point x="579.7924528301887" y="700.0" type="curve"/>
      <point x="214.26415094339623" y="700.0" type="line"/>
      <point x="187.43396226415095" y="652.188679245283"/>
      <point x="185.83018867924528" y="573.8867924528302"/>
      <point x="241.79245283018867" y="573.8867924528302" type="curve"/>
      <point x="362.8113207547171" y="573.8867924528302" type="line"/>
      <point x="426.92452830188694" y="573.8867924528302"/>
      <point x="462.7547169811321" y="577.5849056603773"/>
      <point x="509.22641509433976" y="593.7735849056603" type="curve"/>
      <point x="457.67924528301893" y="608.2641509433962" type="line"/>
      <point x="499.81132075471703" y="562.8301886792453" type="line"/>
      <point x="498.71698113207555" y="610.0754716981132" type="line"/>
      <point x="471.24528301886795" y="552.377358490566"/>
      <point x="433.4150943396226" y="496.4339622641509"/>
      <point x="385.67924528301893" y="442.24528301886795" type="curve" smooth="yes"/>
      <point x="292.50943396226415" y="335.92452830188677"/>
      <point x="164.39622641509436" y="237.9056603773585"/>
      <point x="25.52830188679245" y="154.1320754716981" type="curve"/>
      <point x="21.83018867924528" y="139.88679245283018" type="line" smooth="yes"/>
      <point x="-5.943396226415091" y="45.71698113207546"/>
      <point x="21.18867924528302" y="0.0"/>
      <point x="71.26415094339623" y="0.0" type="curve" smooth="yes"/>
    </contour>
    <contour>
      <point x="246.69811320754715" y="507.54716981132077" type="curve"/>
      <point x="272.9433962264151" y="610.9811320754717"/>
      <point x="315.45283018867923" y="664.3396226415094"/>
      <point x="328.6981132075472" y="714.2641509433961" type="curve"/>
      <point x="335.54716981132077" y="741.6037735849056"/>
      <point x="306.811320754717" y="758.4905660377359"/>
      <point x="223.0188679245283" y="758.4905660377359" type="curve"/>
      <point x="180.52830188679246" y="704.3962264150944"/>
      <point x="151.32075471698113" y="653.9245283018868"/>
      <point x="133.0754716981132" y="582.3396226415093" type="curve"/>
      <point x="122.9811320754717" y="540.566037735849"/>
      <point x="134.88679245283018" y="502.4528301886793"/>
      <point x="195.0943396226415" y="502.4528301886793" type="curve" smooth="yes"/>
      <point x="215.07547169811318" y="502.4528301886793"/>
      <point x="232.6603773584906" y="504.1509433962264"/>
    </contour>
  </outline>
</glyph>
<glyph name="grave" format="2">
  <advance width="600.0"/>
  <unicode hex="0060"/>
  <outline>
    <contour>
      <point x="405.6981132075472" y="758.3207547169811" type="curve"/>
      <point x="363.5849056603774" y="760.0754716981132"/>
      <point x="335.9056603773585" y="757.8301886792453"/>
      <point x="311.566037735849" y="753.5849056603774" type="curve" smooth="yes"/>
      <point x="280.1698113207547" y="748.4905660377359"/>
      <point x="262.0188679245283" y="734.5471698113208"/>
      <point x="255.07547169811318" y="705.0" type="curve" smooth="yes"/>
      <point x="241.03773584905656" y="638.188679245283"/>
      <point x="273.52830188679246" y="520.2452830188679"/>
      <point x="314.1698113207547" y="472.58490566037733" type="curve" smooth="yes"/>
      <point x="333.75471698113205" y="449.6981132075472"/>
      <point x="348.3018867924529" y="442.09433962264154"/>
      <point x="382.2264150943397" y="442.09433962264154" type="curve" smooth="yes"/>
      <point x="407.5660377358491" y="442.09433962264154"/>
      <point x="426.7547169811321" y="450.188679245283"/>
      <point x="446.0" y="464.9811320754717" type="curve"/>
      <point x="413.39622641509436" y="550.7924528301886"/>
      <point x="394.05660377358487" y="644.0754716981132"/>
    </contour>
  </outline>
</glyph>
<glyph name="g" format="2">
  <advance width="600.0"/>
  <unicode hex="0067"/>
  <outline>
    <contour>
      <point x="303.3396226415095" y="549.5849056603773" type="curve" smooth="yes"/>
      <point x="189.69811320754718" y="549.5849056603773"/>
      <point x="93.43396226415095" y="466.39622641509436"/>
      <point x="46.773584905660385" y="278.2075471698113" type="curve" smooth="yes"/>
      <point x="40.22641509433963" y="252.0188679245283" type="line" smooth="yes"/>
      <point x="14.773584905660385" y="149.66037735849054"/>
      <point x="55.716981132075475" y="26.792452830188672"/>
      <point x="159.28301886792454" y="26.792452830188672" type="curve" smooth="yes"/>
      <point x="223.56603773584908" y="26.792452830188672"/>
      <point x="309.566037735849" y="83.20754716981135"/>
      <point x="364.41509433962267" y="163.77358490566039" type="curve"/>
      <point x="404.7924528301886" y="163.77358490566039" type="line"/>
      <point x="440.88679245283015" y="336.22641509433964" type="line"/>
      <point x="359.54716981132077" y="201.6603773584905"/>
      <point x="270.50943396226415" y="170.73584905660374"/>
      <point x="193.69811320754712" y="170.73584905660374" type="curve" smooth="yes"/>
      <point x="182.41509433962264" y="170.73584905660374"/>
      <point x="173.94339622641505" y="172.84905660377353"/>
      <point x="165.9811320754717" y="177.16981132075472" type="curve" smooth="yes"/>
      <point x="167.47169811320754" y="202.0377358490566"/>
      <point x="172.32075471698113" y="229.09433962264148"/>
      <point x="181.22641509433961" y="261.5660377358491" type="curve" smooth="yes"/>
      <point x="186.0754716981132" y="279.1132075471698" type="line" smooth="yes"/>
      <point x="211.54716981132077" y="372.24528301886795"/>
      <point x="257.0377358490566" y="424.3207547169812"/>
      <point x="325.05660377358487" y="424.3207547169812" type="curve" smooth="yes"/>
      <point x="377.79245283018867" y="424.3207547169812"/>
      <point x="423.33962264150944" y="407.9056603773585"/>
      <point x="443.7547169811321" y="373.66037735849056" type="curve"/>
      <point x="471.0943396226415" y="460.03773584905656" type="line"/>
      <point x="438.66037735849056" y="460.03773584905656" type="line"/>
      <point x="414.75471698113205" y="507.2452830188679"/>
      <point x="370.5471698113208" y="549.5849056603773"/>
    </contour>
    <contour>
      <point x="477.2075471698113" y="542.9811320754716" type="curve"/>
      <point x="458.81132075471703" y="499.7924528301887"/>
      <point x="444.81132075471703" y="459.9433962264151"/>
      <point x="432.96226415094344" y="424.64150943396226" type="curve" smooth="yes"/>
      <point x="386.01886792452837" y="278.2452830188679"/>
      <point x="380.79245283018867" y="180.62264150943395"/>
      <point x="343.433962264151" y="66.07547169811319" type="curve" smooth="yes"/>
      <point x="326.6792452830189" y="15.471698113207532"/>
      <point x="306.5849056603774" y="-18.924528301886806"/>
      <point x="277.0" y="-57.358490566037744" type="curve" smooth="yes"/>
      <point x="245.03773584905665" y="-69.13207547169813"/>
      <point x="211.16981132075472" y="-74.64150943396228"/>
      <point x="176.43396226415095" y="-74.64150943396228" type="curve" smooth="yes"/>
      <point x="103.54716981132074" y="-74.64150943396228"/>
      <point x="58.35849056603774" y="-62.94339622641511"/>
      <point x="23.452830188679243" y="-43.679245283018886" type="curve"/>
      <point x="17.452830188679243" y="-43.679245283018886" type="line"/>
      <point x="11.603773584905657" y="-54.622641509433976"/>
      <point x="7.6037735849056585" y="-65.86792452830191"/>
      <point x="3.9056603773584904" y="-79.11320754716982" type="curve" smooth="yes"/>
      <point x="-5.037735849056604" y="-114.33962264150942"/>
      <point x="-3.735849056603776" y="-144.56603773584905"/>
      <point x="10.603773584905658" y="-164.30188679245282" type="curve" smooth="yes"/>
      <point x="25.603773584905674" y="-185.1509433962264"/>
      <point x="56.07547169811322" y="-205.0"/>
      <point x="132.66037735849054" y="-205.0" type="curve" smooth="yes"/>
      <point x="285.9622641509434" y="-205.0"/>
      <point x="412.3962264150943" y="-129.13207547169813"/>
      <point x="459.811320754717" y="0.09433962264150964" type="curve" smooth="yes"/>
      <point x="508.32075471698107" y="131.9056603773585"/>
      <point x="512.4905660377358" y="263.2830188679245"/>
      <point x="578.0377358490565" y="433.81132075471703" type="curve" smooth="yes"/>
      <point x="601.7735849056603" y="496.3207547169811"/>
      <point x="564.3962264150944" y="546.8301886792452"/>
      <point x="506.7924528301887" y="546.8301886792452" type="curve" smooth="yes"/>
      <point x="495.0" y="546.8301886792452"/>
      <point x="484.9056603773585" y="544.9811320754716"/>
    </contour>
  </outline>
</glyph>
<glyph name="q" format="2">
  <advance width="600.0"/>
  <unicode hex="0071"/>
  <outline>
    <contour>
      <point x="455.3018867924529" y="538.188679245283" type="curve"/>
      <point x="455.3018867924529" y="512.0943396226415"/>
      <point x="450.056603773585" y="475.7169811320755"/>
      <point x="442.056603773585" y="439.94339622641513" type="curve"/>
      <point x="399.1698113207548" y="256.0566037735849"/>
      <point x="334.5283018867925" y="144.98113207547166"/>
      <point x="292.69811320754724" y="-52.35849056603776" type="curve"/>
      <point x="274.2641509433963" y="-135.7547169811321"/>
      <point x="317.52830188679246" y="-200.0"/>
      <point x="391.3207547169811" y="-200.0" type="curve" smooth="yes"/>
      <point x="404.7169811320755" y="-200.0"/>
      <point x="416.811320754717" y="-198.0"/>
      <point x="428.0566037735849" y="-195.0" type="curve"/>
      <point x="421.0566037735849" y="-161.9622641509434"/>
      <point x="423.0566037735849" y="-131.47169811320757"/>
      <point x="429.0566037735849" y="-99.01886792452831" type="curve" smooth="yes"/>
      <point x="460.35849056603774" y="69.75471698113208"/>
      <point x="529.4339622641509" y="211.92452830188677"/>
      <point x="569.377358490566" y="382.433962264151" type="curve"/>
      <point x="599.6037735849056" y="506.75471698113205"/>
      <point x="566.377358490566" y="545.7358490566037"/>
      <point x="505.47169811320754" y="545.7358490566037" type="curve"/>
      <point x="486.2830188679245" y="545.7358490566037"/>
      <point x="471.9433962264151" y="543.8867924528302"/>
    </contour>
    <contour>
      <point x="363.8301886792453" y="124.16981132075472" type="line"/>
      <point x="424.8113207547169" y="327.3207547169812" type="line"/>
      <point x="324.16663890110186" y="179.33545096863395"/>
      <point x="258.7741163964982" y="128.0"/>
      <point x="188.09433962264148" y="128.0" type="curve" smooth="yes"/>
      <point x="176.1132075471698" y="128.0"/>
      <point x="167.39622641509433" y="131.86792452830184"/>
      <point x="159.0377358490566" y="136.64150943396228" type="curve" smooth="yes"/>
      <point x="158.83018867924525" y="164.22641509433961"/>
      <point x="164.2830188679245" y="194.24528301886792"/>
      <point x="174.43396226415092" y="230.1509433962264" type="curve" smooth="yes"/>
      <point x="179.2830188679245" y="246.84905660377356" type="line" smooth="yes"/>
      <point x="212.69811320754715" y="363.26415094339626"/>
      <point x="257.8301886792453" y="424.3207547169812"/>
      <point x="335.9056603773585" y="424.3207547169812" type="curve" smooth="yes"/>
      <point x="385.2736499674718" y="424.3207547169812"/>
      <point x="426.73584905660374" y="406.00000000000006"/>
      <point x="446.1509433962264" y="372.0" type="curve"/>
      <point x="468.3018867924528" y="467.5849056603773" type="line"/>
      <point x="439.90566037735846" y="461.18867924528297" type="line"/>
      <point x="416.9056603773585" y="500.39622641509436"/>
      <point x="373.54716981132077" y="549.5849056603773"/>
      <point x="313.188679245283" y="549.5849056603773" type="curve" smooth="yes"/>
      <point x="187.3962264150943" y="549.5849056603773"/>
      <point x="94.8867924528302" y="459.47169811320754"/>
      <point x="37.433962264150956" y="238.3018867924528" type="curve" smooth="yes"/>
      <point x="30.8867924528302" y="212.96226415094338" type="line" smooth="yes"/>
      <point x="3.1320754716981227" y="100.15094339622641"/>
      <point x="51.924528301886795" y="-11.69811320754717"/>
      <point x="135.4528301886793" y="-11.69811320754717" type="curve" smooth="yes"/>
      <point x="205.44596912521698" y="-11.69811320754717"/>
      <point x="287.0278695070283" y="52.706993527735854"/>
      <point x="335.2830188679245" y="136.56603773584905" type="curve"/>
    </contour>
  </outline>
</glyph>
<glyph name="x" format="2">
  <advance width="600.0"/>
  <unicode hex="0078"/>
  <outline>
    <contour>
      <point x="94.05660377358491" y="534.4150943396226" type="curve"/>
      <point x="82.56603773584905" y="514.1320754716982"/>
      <point x="75.47169811320755" y="497.9433962264151"/>
      <point x="71.07547169811322" y="480.7547169811321" type="curve" smooth="yes"/>
      <point x="55.33962264150944" y="414.9056603773585"/>
      <point x="68.28301886792454" y="389.3207547169812"/>
      <point x="103.50943396226415" y="389.3207547169812" type="curve" smooth="yes"/>
      <point x="124.50943396226415" y="389.3207547169812"/>
      <point x="146.66037735849054" y="403.1886792452831"/>
      <point x="186.26415094339623" y="422.98113207547175" type="curve"/>
      <point x="191.96226415094338" y="420.83018867924534" type="line"/>
      <point x="208.5471698113208" y="310.07547169811323"/>
      <point x="227.18867924528297" y="187.8490566037736"/>
      <point x="279.8301886792452" y="89.73584905660377" type="curve" smooth="yes"/>
      <point x="318.5094339622641" y="18.358490566037737"/>
      <point x="359.9433962264151" y="-10.0"/>
      <point x="420.3207547169811" y="-10.0" type="curve" smooth="yes"/>
      <point x="451.13207547169816" y="-10.0"/>
      <point x="477.9433962264151" y="-1.7924528301886777"/>
      <point x="500.8490566037736" y="18.811320754716984" type="curve" smooth="yes"/>
      <point x="521.3962264150944" y="37.35849056603773"/>
      <point x="531.1886792452832" y="62.64150943396227"/>
      <point x="536.7358490566039" y="95.62264150943398" type="curve" smooth="yes"/>
      <point x="540.2830188679246" y="118.90566037735849"/>
      <point x="541.1320754716982" y="135.54716981132077"/>
      <point x="541.8301886792453" y="149.33962264150944" type="curve"/>
      <point x="535.8301886792453" y="149.33962264150944" type="line"/>
      <point x="504.7735849056604" y="124.92452830188678"/>
      <point x="476.2452830188679" y="114.66037735849055"/>
      <point x="441.49056603773585" y="112.75471698113206" type="curve" smooth="yes"/>
      <point x="422.54716981132077" y="121.35849056603772"/>
      <point x="395.86792452830184" y="151.49056603773582"/>
      <point x="378.32075471698107" y="202.01886792452825" type="curve" smooth="yes"/>
      <point x="357.8490566037736" y="257.0"/>
      <point x="334.75471698113205" y="354.60377358490564"/>
      <point x="326.9622641509434" y="439.9056603773585" type="curve" smooth="yes"/>
      <point x="318.3207547169811" y="510.1698113207547"/>
      <point x="287.52830188679246" y="547.8867924528302"/>
      <point x="216.84905660377356" y="547.8867924528302" type="curve" smooth="yes"/>
      <point x="169.09433962264154" y="547.8867924528302"/>
      <point x="138.22641509433964" y="544.132075471698"/>
    </contour>
    <contour>
      <point x="318.77358490566036" y="338.49056603773585" type="line"/>
      <point x="350.8490566037736" y="256.8679245283019" type="line"/>
      <point x="427.75471698113205" y="327.45283018867923"/>
      <point x="515.8867924528302" y="378.86792452830196"/>
      <point x="587.5094339622641" y="396.566037735849" type="curve"/>
      <point x="634.5094339622641" y="471.3018867924528"/>
      <point x="630.4528301886792" y="555.622641509434"/>
      <point x="566.9056603773586" y="555.622641509434" type="curve" smooth="yes"/>
      <point x="531.5283018867924" y="555.622641509434"/>
      <point x="505.79245283018867" y="544.5283018867924"/>
      <point x="476.4528301886793" y="514.0943396226415" type="curve" smooth="yes"/>
      <point x="436.433962264151" y="474.188679245283"/>
      <point x="382.188679245283" y="399.2641509433962"/>
      <point x="350.90566037735846" y="338.49056603773585" type="curve"/>
    </contour>
    <contour>
      <point x="239.3962264150944" y="300.64150943396226" type="line"/>
      <point x="154.9811320754717" y="223.09433962264154"/>
      <point x="69.47169811320755" y="172.9811320754717"/>
      <point x="0.03773584905660954" y="134.15094339622638" type="curve"/>
      <point x="-27.622641509433947" y="54.83018867924527"/>
      <point x="-16.07547169811322" y="-10.0"/>
      <point x="36.830188679245296" y="-10.0" type="curve" smooth="yes"/>
      <point x="68.50943396226415" y="-10.0"/>
      <point x="95.49056603773583" y="2.4905660377358467"/>
      <point x="126.2641509433962" y="37.26415094339622" type="curve" smooth="yes"/>
      <point x="167.62264150943395" y="88.0"/>
      <point x="199.39622641509433" y="141.77358490566039"/>
      <point x="226.49056603773582" y="204.8301886792453" type="curve"/>
      <point x="262.37735849056605" y="204.8301886792453" type="line"/>
    </contour>
  </outline>
</glyph>
<glyph name="brokenbar" format="2">
  <advance width="350.0"/>
  <unicode hex="00A6"/>
  <outline>
    <contour>
      <point x="204.81132075471697" y="758.1509433962264" type="curve"/>
      <point x="207.11320754716982" y="708.9622641509434"/>
      <point x="202.41509433962264" y="671.1698113207548"/>
      <point x="188.26415094339623" y="612.8679245283018" type="curve" smooth="yes"/>
      <point x="155.45283018867926" y="478.92452830188677" type="line" smooth="yes"/>
      <point x="136.05660377358492" y="401.33962264150944"/>
      <point x="165.188679245283" y="366.60377358490564"/>
      <point x="238.1320754716981" y="366.60377358490564" type="curve" smooth="yes"/>
      <point x="253.01886792452825" y="366.60377358490564"/>
      <point x="263.811320754717" y="367.45283018867923"/>
      <point x="271.0566037735849" y="369.1509433962264" type="curve"/>
      <point x="332.8679245283019" y="616.6981132075472" type="line" smooth="yes"/>
      <point x="350.81132075471703" y="688.1698113207548"/>
      <point x="347.811320754717" y="727.811320754717"/>
      <point x="330.622641509434" y="744.9056603773586" type="curve" smooth="yes"/>
      <point x="317.8301886792453" y="758.4528301886793"/>
      <point x="297.0943396226415" y="764.6981132075472"/>
      <point x="265.5660377358491" y="764.6981132075472" type="curve" smooth="yes"/>
      <point x="242.98113207547172" y="764.6981132075472"/>
      <point x="225.9433962264151" y="762.6981132075471"/>
    </contour>
    <contour>
      <point x="92.66037735849059" y="228.30188679245282" type="curve"/>
      <point x="35.03773584905662" y="-4.58490566037738" type="line"/>
      <point x="4.905660377358508" y="-125.41509433962263"/>
      <point x="38.981132075471706" y="-163.39622641509433"/>
      <point x="105.13207547169813" y="-163.39622641509433" type="curve" smooth="yes"/>
      <point x="120.0188679245283" y="-163.39622641509433"/>
      <point x="130.81132075471697" y="-162.54716981132074"/>
      <point x="138.90566037735846" y="-160.8490566037736" type="curve"/>
      <point x="199.37735849056602" y="81.7358490566038" type="line" smooth="yes"/>
      <point x="226.2641509433962" y="190.1320754716981"/>
      <point x="210.1698113207547" y="234.69811320754718"/>
      <point x="146.56603773584905" y="234.69811320754718" type="curve"/>
      <point x="126.98113207547169" y="234.69811320754718"/>
      <point x="107.54716981132077" y="232.8490566037736"/>
    </contour>
  </outline>
</glyph>
<glyph name="thorn" format="2">
  <advance width="600.0"/>
  <unicode hex="00FE"/>
  <outline>
    <contour>
      <point x="172.49056603773585" y="750.6037735849056" type="curve"/>
      <point x="183.73584905660377" y="724.2075471698113"/>
      <point x="179.49056603773585" y="687.2264150943396"/>
      <point x="174.49056603773587" y="652.8113207547169" type="curve" smooth="yes"/>
      <point x="138.00000000000003" y="419.13207547169804"/>
      <point x="11.471698113207555" y="132.54716981132074"/>
      <point x="-32.22641509433961" y="-68.22641509433966" type="curve" smooth="yes"/>
      <point x="-49.26415094339621" y="-143.13207547169813"/>
      <point x="-10.792452830188669" y="-209.9245283018868"/>
      <point x="63.0" y="-209.9245283018868" type="curve" smooth="yes"/>
      <point x="71.39622641509433" y="-209.9245283018868"/>
      <point x="80.64150943396224" y="-208.92452830188682"/>
      <point x="88.188679245283" y="-206.9245283018868" type="curve"/>
      <point x="99.50943396226414" y="20.433962264150964"/>
      <point x="254.47169811320748" y="342.69811320754724"/>
      <point x="303.2075471698113" y="594.5471698113207" type="curve" smooth="yes"/>
      <point x="328.8867924528301" y="719.1698113207547"/>
      <point x="287.32075471698107" y="758.3018867924528"/>
      <point x="224.96226415094338" y="758.3018867924528" type="curve"/>
      <point x="205.62264150943398" y="758.3018867924528"/>
      <point x="189.28301886792454" y="756.4528301886792"/>
    </contour>
    <contour>
      <point x="460.50943396226415" y="549.5849056603773" type="curve" smooth="yes"/>
      <point x="394.79245283018867" y="549.5849056603773"/>
      <point x="318.4905660377358" y="486.83018867924534"/>
      <point x="262.1320754716981" y="409.05660377358487" type="curve"/>
      <point x="234.69811320754715" y="421.84905660377353" type="line"/>
      <point x="180.41509433962264" y="224.16981132075472" type="line"/>
      <point x="261.2075471698113" y="355.37735849056605"/>
      <point x="333.66037735849056" y="409.8867924528302"/>
      <point x="407.8679245283019" y="409.8867924528302" type="curve" smooth="yes"/>
      <point x="419.5471698113207" y="409.8867924528302"/>
      <point x="428.8679245283019" y="405.7169811320755"/>
      <point x="436.62264150943395" y="398.2264150943396" type="curve"/>
      <point x="437.1698113207547" y="375.75471698113205"/>
      <point x="432.0188679245283" y="350.09433962264154"/>
      <point x="420.3207547169811" y="309.245283018868" type="curve" smooth="yes"/>
      <point x="415.4716981132076" y="292.3962264150943" type="line" smooth="yes"/>
      <point x="382.81132075471703" y="177.03773584905656"/>
      <point x="337.22641509433964" y="113.56603773584904"/>
      <point x="258.24528301886795" y="113.56603773584904" type="curve" smooth="yes"/>
      <point x="208.56603773584905" y="113.56603773584904"/>
      <point x="174.96226415094338" y="129.9811320754717"/>
      <point x="155.2452830188679" y="163.52830188679246" type="curve"/>
      <point x="109.86792452830188" y="69.84905660377359" type="line"/>
      <point x="156.2452830188679" y="77.39622641509433" type="line"/>
      <point x="179.0943396226415" y="38.79245283018868"/>
      <point x="225.2452830188679" y="-11.69811320754717"/>
      <point x="288.99999999999994" y="-11.69811320754717" type="curve" smooth="yes"/>
      <point x="410.377358490566" y="-11.69811320754717"/>
      <point x="501.37735849056605" y="84.75471698113208"/>
      <point x="557.4716981132076" y="300.64150943396226" type="curve" smooth="yes"/>
      <point x="564.1698113207548" y="326.5849056603774" type="line" smooth="yes"/>
      <point x="593.622641509434" y="440.0"/>
      <point x="544.0377358490566" y="549.5849056603773"/>
    </contour>
  </outline>
</glyph>
<glyph name="dotlessi" format="2">
  <advance width="350.0"/>
  <unicode hex="0131"/>
  <outline>
    <contour>
      <point x="103.69811320754718" y="537.7358490566037" type="curve"/>
      <point x="92.90566037735849" y="518.1509433962264"/>
      <point x="87.50943396226415" y="503.11320754716985"/>
      <point x="82.9622641509434" y="485.7735849056604" type="curve" smooth="yes"/>
      <point x="67.9245283018868" y="421.92452830188677"/>
      <point x="81.56603773584906" y="395.188679245283"/>
      <point x="103.35849056603773" y="395.188679245283" type="curve" smooth="yes"/>
      <point x="120.49520893015847" y="395.188679245283"/>
      <point x="134.61244353246795" y="400.1425931774038"/>
      <point x="150.0566037735849" y="409.39622641509436" type="curve"/>
      <point x="154.90566037735852" y="406.24528301886795" type="line"/>
      <point x="134.45283018867926" y="318.90566037735846"/>
      <point x="91.30188679245283" y="242.24528301886795"/>
      <point x="78.18867924528303" y="140.84905660377356" type="curve" smooth="yes"/>
      <point x="64.58490566037736" y="37.1509433962264"/>
      <point x="125.30188679245285" y="-10.90566037735849"/>
      <point x="184.05660377358492" y="-10.90566037735849" type="curve" smooth="yes"/>
      <point x="220.0" y="-10.90566037735849"/>
      <point x="244.4410474104453" y="-4.4080091933283025"/>
      <point x="261.9433962264151" y="13.094339622641506" type="curve" smooth="yes"/>
      <point x="276.060562932166" y="27.211506328392453"/>
      <point x="285.4512668325585" y="45.117169763033964"/>
      <point x="290.1320754716981" y="67.86792452830188" type="curve" smooth="yes"/>
      <point x="296.52830188679246" y="97.24528301886792"/>
      <point x="297.52830188679246" y="123.67924528301886"/>
      <point x="293.9811320754717" y="145.32075471698113" type="curve"/>
      <point x="287.9811320754717" y="145.32075471698113" type="line"/>
      <point x="270.7735849056604" y="128.9056603773585"/>
      <point x="258.8426705370113" y="123.24528301886791"/>
      <point x="238.1509433962264" y="123.24528301886791" type="curve" smooth="yes"/>
      <point x="228.1754435370264" y="123.24528301886791"/>
      <point x="217.7924528301887" y="125.54716981132073"/>
      <point x="210.49056603773582" y="130.60377358490564" type="curve" smooth="yes"/>
      <point x="209.66316878590186" y="144.95109844128302"/>
      <point x="210.75188093000756" y="160.18665310777357"/>
      <point x="219.03773584905662" y="194.45283018867923" type="curve" smooth="yes"/>
      <point x="239.58490566037736" y="276.52830188679246"/>
      <point x="279.75471698113205" y="341.24528301886795"/>
      <point x="296.3018867924528" y="440.2075471698113" type="curve" smooth="yes"/>
      <point x="306.0943396226415" y="494.7735849056603"/>
      <point x="259.62264150943395" y="547.8867924528302"/>
      <point x="212.0" y="547.8867924528302" type="curve" smooth="yes"/>
      <point x="178.53290814066418" y="547.8867924528302"/>
      <point x="138.35849056603772" y="543.8867924528302"/>
    </contour>
  </outline>
</glyph>
<glyph name="Nhookleft" format="2">
  <advance width="650.0"/>
  <unicode hex="019D"/>
  <outline>
    <contour>
      <point x="-44.62264150943397" y="-60.28301886792454" type="curve" smooth="yes"/>
      <point x="-66.62264150943398" y="-60.28301886792454"/>
      <point x="-74.43396226415094" y="-56.67924528301887"/>
      <point x="-90.9811320754717" y="-48.62264150943397" type="curve"/>
      <point x="-96.67924528301889" y="-48.62264150943397" type="line"/>
      <point x="-103.07547169811323" y="-63.11320754716982"/>
      <point x="-107.77358490566039" y="-76.9056603773585"/>
      <point x="-111.47169811320757" y="-91.54716981132074" type="curve" smooth="yes"/>
      <point x="-121.11320754716982" y="-132.26415094339623"/>
      <point x="-121.26415094339626" y="-160.54716981132074"/>
      <point x="-109.32075471698114" y="-178.73584905660377" type="curve" smooth="yes"/>
      <point x="-98.62264150943395" y="-194.1320754716981"/>
      <point x="-79.62264150943396" y="-201.9811320754717"/>
      <point x="-52.377358490566046" y="-201.9811320754717" type="curve" smooth="yes"/>
      <point x="-43.13207547169812" y="-201.9811320754717" type="line" smooth="yes"/>
      <point x="50.60377358490567" y="-201.9811320754717"/>
      <point x="134.52830188679243" y="-133.66037735849056"/>
      <point x="165.96226415094338" y="-10.754716981132075" type="curve" smooth="yes"/>
      <point x="168.81132075471695" y="-0.7547169811320744" type="line" smooth="yes"/>
      <point x="159.01886792452825" y="44.86792452830188"/>
      <point x="122.75471698113206" y="95.1132075471698"/>
      <point x="71.16981132075472" y="95.1132075471698" type="curve"/>
      <point x="57.433962264150935" y="40.41509433962263" type="line" smooth="yes"/>
      <point x="41.64150943396226" y="-28.490566037735853"/>
      <point x="0.5471698113207548" y="-60.28301886792454"/>
    </contour>
    <component base="N"/>
  </outline>
</glyph>
<glyph name="dotlessj" format="2">
  <advance width="350.0"/>
  <unicode hex="0237"/>
  <anchor x="297.2452830188679" y="537.0377358490565" name="top"/>
  <outline>
    <contour>
      <point x="240.58490566037736" y="547.8867924528302" type="curve" smooth="yes"/>
      <point x="198.52830188679246" y="547.8867924528302"/>
      <point x="152.39622641509436" y="543.433962264151"/>
      <point x="118.09433962264151" y="537.8867924528302" type="curve"/>
      <point x="105.60377358490567" y="518.4528301886793"/>
      <point x="96.81132075471699" y="500.5660377358491"/>
      <point x="89.71698113207549" y="468.0943396226415" type="curve" smooth="yes"/>
      <point x="79.77358490566039" y="421.2264150943396"/>
      <point x="89.16981132075472" y="395.33962264150944"/>
      <point x="117.75471698113208" y="395.33962264150944" type="curve" smooth="yes"/>
      <point x="142.2075471698113" y="395.33962264150944"/>
      <point x="163.47169811320754" y="403.88679245283015"/>
      <point x="192.26415094339626" y="420.6792452830189" type="curve"/>
      <point x="197.11320754716982" y="416.52830188679246" type="line"/>
      <point x="149.84905660377362" y="272.9433962264151"/>
      <point x="134.98113207547172" y="197.96226415094333"/>
      <point x="108.11320754716982" y="76.43396226415094" type="curve" smooth="yes"/>
      <point x="92.41509433962266" y="2.1132075471698037"/>
      <point x="82.35849056603774" y="-21.490566037735864"/>
      <point x="63.90566037735849" y="-56.77358490566039" type="curve"/>
      <point x="46.849056603773576" y="-66.18867924528303"/>
      <point x="26.943396226415086" y="-69.94339622641512"/>
      <point x="6.92452830188679" y="-69.94339622641512" type="curve" smooth="yes"/>
      <point x="-17.283018867924532" y="-69.94339622641512"/>
      <point x="-34.13207547169813" y="-64.9433962264151"/>
      <point x="-54.981132075471706" y="-47.7924528301887" type="curve"/>
      <point x="-59.283018867924525" y="-47.7924528301887" type="line"/>
      <point x="-64.8301886792453" y="-58.73584905660378"/>
      <point x="-68.67924528301887" y="-69.98113207547172"/>
      <point x="-72.52830188679246" y="-83.22641509433963" type="curve" smooth="yes"/>
      <point x="-81.62264150943396" y="-118.30188679245283"/>
      <point x="-78.47169811320757" y="-153.0754716981132"/>
      <point x="-68.22641509433963" y="-169.26415094339623" type="curve" smooth="yes"/>
      <point x="-55.07547169811321" y="-190.05660377358492"/>
      <point x="-22.528301886792455" y="-200.45283018867926"/>
      <point x="26.905660377358483" y="-200.30188679245282" type="curve" smooth="yes"/>
      <point x="105.64150943396226" y="-200.0"/>
      <point x="171.73584905660374" y="-166.41509433962264"/>
      <point x="208.64150943396226" y="-56.962264150943405" type="curve" smooth="yes"/>
      <point x="263.45283018867923" y="106.30188679245285"/>
      <point x="264.4150943396226" y="202.39622641509436"/>
      <point x="341.0188679245283" y="413.3018867924528" type="curve" smooth="yes"/>
      <point x="366.5471698113207" y="484.64150943396237"/>
      <point x="322.9245283018868" y="547.8867924528302"/>
    </contour>
  </outline>
</glyph>
<glyph name="ellipsis" format="2">
  <advance width="800.0"/>
  <unicode hex="2026"/>
  <outline>
    <contour>
      <point x="157.9056603773585" y="-3.6415094339622627" type="curve"/>
      <point x="177.64150943396226" y="75.84905660377358" type="line" smooth="yes"/>
      <point x="196.73584905660377" y="152.47169811320754"/>
      <point x="170.3962264150943" y="189.54716981132074"/>
      <point x="119.67924528301886" y="189.54716981132074" type="curve" smooth="yes"/>
      <point x="90.79245283018868" y="189.54716981132074"/>
      <point x="67.45283018867926" y="184.0"/>
      <point x="44.11320754716981" y="176.1509433962264" type="curve"/>
      <point x="26.9245283018868" y="106.84905660377358" type="line" smooth="yes"/>
      <point x="7.830188679245288" y="29.52830188679245"/>
      <point x="38.26415094339624" y="-10.094339622641508"/>
      <point x="91.28301886792453" y="-10.094339622641508" type="curve" smooth="yes"/>
      <point x="118.16981132075472" y="-10.094339622641508"/>
      <point x="139.81132075471697" y="-7.943396226415094"/>
    </contour>
    <contour>
      <point x="412.5094339622641" y="-3.6415094339622627" type="curve"/>
      <point x="432.24528301886784" y="75.84905660377358" type="line" smooth="yes"/>
      <point x="451.3396226415094" y="152.47169811320754"/>
      <point x="423.3018867924528" y="189.54716981132074"/>
      <point x="374.2830188679245" y="189.54716981132074" type="curve" smooth="yes"/>
      <point x="345.3962264150943" y="189.54716981132074"/>
      <point x="322.20754716981133" y="184.0"/>
      <point x="298.8679245283019" y="176.1509433962264" type="curve"/>
      <point x="281.6792452830189" y="106.84905660377358" type="line" smooth="yes"/>
      <point x="262.58490566037733" y="29.52830188679245"/>
      <point x="292.8679245283019" y="-10.094339622641508"/>
      <point x="345.8867924528302" y="-10.094339622641508" type="curve" smooth="yes"/>
      <point x="372.77358490566036" y="-10.094339622641508"/>
      <point x="394.4150943396226" y="-7.943396226415094"/>
    </contour>
    <contour>
      <point x="667.1132075471697" y="-3.6415094339622627" type="curve"/>
      <point x="686.8490566037736" y="75.84905660377358" type="line" smooth="yes"/>
      <point x="705.9433962264151" y="152.47169811320754"/>
      <point x="678.7547169811321" y="189.54716981132074"/>
      <point x="629.7358490566038" y="189.54716981132074" type="curve" smooth="yes"/>
      <point x="600.8490566037735" y="189.54716981132074"/>
      <point x="577.6603773584907" y="184.0"/>
      <point x="554.3207547169812" y="176.1509433962264" type="curve"/>
      <point x="537.1320754716982" y="106.84905660377358" type="line" smooth="yes"/>
      <point x="518.0377358490565" y="29.52830188679245"/>
      <point x="549.1698113207547" y="-10.094339622641508"/>
      <point x="600.4905660377358" y="-10.094339622641508" type="curve" smooth="yes"/>
      <point x="627.3773584905659" y="-10.094339622641508"/>
      <point x="649.0188679245283" y="-7.943396226415094"/>
    </contour>
  </outline>
</glyph>
<glyph name="minute" format="2">
  <advance width="300.0"/>
  <unicode hex="2032"/>
  <outline>
    <contour>
      <point x="130.37735849056605" y="435.39622641509436" type="curve" smooth="yes"/>
      <point x="162.60377358490564" y="435.39622641509436"/>
      <point x="187.39622641509433" y="444.188679245283"/>
      <point x="214.88679245283018" y="464.2830188679245" type="curve" smooth="yes"/>
      <point x="289.47169811320754" y="520.0754716981132"/>
      <point x="372.71698113207543" y="638.3207547169811"/>
      <point x="388.8679245283019" y="702.7735849056604" type="curve" smooth="yes"/>
      <point x="397.26415094339626" y="737.6603773584906"/>
      <point x="383.86792452830184" y="755.8490566037735"/>
      <point x="329.75471698113205" y="755.8490566037735" type="curve" smooth="yes"/>
      <point x="295.4716981132075" y="755.8490566037735"/>
      <point x="275.52830188679246" y="753.6981132075472"/>
      <point x="246.7924528301887" y="748.6981132075472" type="curve"/>
      <point x="199.188679245283" y="645.4716981132076"/>
      <point x="128.33962264150944" y="541.9811320754717"/>
      <point x="55.77358490566038" y="458.2830188679245" type="curve"/>
      <point x="77.81132075471697" y="442.64150943396226"/>
      <point x="101.54716981132076" y="435.39622641509436"/>
    </contour>
  </outline>
</glyph>
<glyph name="zerosuperior" format="2">
  <advance width="600.0"/>
  <unicode hex="2070"/>
  <outline>
    <contour>
      <point x="409.94339622641513" y="738.6792452830189" type="curve" smooth="yes"/>
      <point x="325.3018867924529" y="738.6792452830189"/>
      <point x="259.0566037735849" y="672.9245283018869"/>
      <point x="230.56603773584905" y="559.0377358490566" type="curve" smooth="yes"/>
      <point x="220.92452830188682" y="521.867924528302" type="line" smooth="yes"/>
      <point x="197.37735849056605" y="427.05660377358487"/>
      <point x="236.52830188679246" y="360.3207547169811"/>
      <point x="329.60377358490564" y="360.3207547169811" type="curve" smooth="yes"/>
      <point x="412.03773584905656" y="360.3207547169811"/>
      <point x="477.49056603773585" y="414.2075471698113"/>
      <point x="504.0377358490566" y="517.7169811320755" type="curve" smooth="yes"/>
      <point x="513.8301886792453" y="554.6415094339623" type="line" smooth="yes"/>
      <point x="538.5283018867925" y="657.3962264150944"/>
      <point x="504.4339622641509" y="738.6792452830189"/>
    </contour>
    <contour>
      <point x="401.7547169811321" y="662.7169811320755" type="curve" smooth="yes"/>
      <point x="418.35849056603774" y="662.7169811320755"/>
      <point x="431.5094339622642" y="660.4150943396227"/>
      <point x="439.1132075471698" y="656.3584905660377" type="curve" smooth="yes"/>
      <point x="448.1132075471698" y="639.3962264150942"/>
      <point x="447.86792452830184" y="610.4905660377358"/>
      <point x="438.2641509433962" y="573.0754716981132" type="curve" smooth="yes"/>
      <point x="426.0754716981132" y="527.0188679245283" type="line" smooth="yes"/>
      <point x="407.32075471698107" y="457.09433962264154"/>
      <point x="376.6981132075472" y="436.2830188679245"/>
      <point x="333.20754716981133" y="436.2830188679245" type="curve" smooth="yes"/>
      <point x="322.49056603773585" y="436.2830188679245"/>
      <point x="314.9811320754717" y="437.18867924528297"/>
      <point x="306.37735849056605" y="440.99999999999994" type="curve" smooth="yes"/>
      <point x="295.433962264151" y="455.2075471698113"/>
      <point x="292.433962264151" y="483.86792452830184"/>
      <point x="299.0377358490566" y="509.433962264151" type="curve" smooth="yes"/>
      <point x="312.9245283018868" y="562.433962264151" type="line" smooth="yes"/>
      <point x="330.8301886792453" y="629.6603773584907"/>
      <point x="361.64150943396226" y="662.7169811320755"/>
    </contour>
  </outline>
</glyph>
<glyph name="sevensuperior" format="2">
  <advance width="600.0"/>
  <unicode hex="2077"/>
  <outline>
    <contour>
      <point x="284.35849056603774" y="744.8679245283018" type="curve"/>
      <point x="267.1132075471698" y="708.3207547169811"/>
      <point x="250.96226415094338" y="665.2641509433963"/>
      <point x="245.50943396226413" y="640.811320754717" type="curve" smooth="yes"/>
      <point x="240.2075471698113" y="616.9622641509435"/>
      <point x="250.75471698113208" y="605.1698113207548"/>
      <point x="275.64150943396226" y="605.1698113207548" type="curve" smooth="yes"/>
      <point x="293.9811320754717" y="605.1698113207548"/>
      <point x="303.37735849056605" y="606.1698113207548"/>
      <point x="317.47169811320754" y="608.1698113207548" type="curve"/>
      <point x="327.47169811320754" y="650.1698113207548"/>
      <point x="341.9245283018868" y="682.188679245283"/>
      <point x="347.62264150943395" y="704.5849056603774" type="curve" smooth="yes"/>
      <point x="353.47169811320754" y="728.8301886792452"/>
      <point x="342.47169811320754" y="744.8679245283018"/>
    </contour>
    <contour>
      <point x="475.811320754717" y="682.245283018868" type="line"/>
      <point x="459.2075471698113" y="658.4150943396227"/>
      <point x="421.9811320754717" y="609.4905660377358"/>
      <point x="393.3207547169811" y="575.7358490566037" type="curve" smooth="yes"/>
      <point x="318.1132075471698" y="484.39622641509436"/>
      <point x="282.1698113207547" y="425.566037735849"/>
      <point x="273.8679245283019" y="399.35849056603774" type="curve" smooth="yes"/>
      <point x="265.3207547169811" y="372.566037735849"/>
      <point x="276.2641509433962" y="360.0188679245283"/>
      <point x="305.45283018867923" y="360.0188679245283" type="curve" smooth="yes"/>
      <point x="326.49056603773585" y="360.0188679245283"/>
      <point x="344.8301886792453" y="362.0188679245283"/>
      <point x="359.47169811320754" y="365.8679245283019" type="curve"/>
      <point x="370.86792452830184" y="410.11320754716985"/>
      <point x="395.66037735849056" y="455.0"/>
      <point x="445.33962264150944" y="518.4150943396227" type="curve" smooth="yes"/>
      <point x="503.15094339622635" y="592.3584905660377"/>
      <point x="536.5283018867924" y="643.0"/>
      <point x="543.3773584905659" y="668.5471698113208" type="curve" smooth="yes"/>
      <point x="545.377358490566" y="676.5471698113207" type="line" smooth="yes"/>
      <point x="550.3773584905659" y="696.2452830188679"/>
      <point x="541.8301886792452" y="727.3207547169811"/>
      <point x="515.2452830188679" y="727.3207547169811" type="curve"/>
      <point x="481.9622641509434" y="727.3207547169811"/>
      <point x="354.50943396226415" y="727.3207547169811"/>
      <point x="287.0188679245283" y="727.3207547169811" type="curve"/>
      <point x="276.22641509433964" y="683.4528301886794"/>
      <point x="279.56603773584914" y="664.0943396226415"/>
      <point x="297.56603773584914" y="664.0943396226415" type="curve" smooth="yes"/>
      <point x="376.20754716981133" y="664.0943396226415" type="line" smooth="yes"/>
      <point x="425.2075471698114" y="664.0943396226415"/>
      <point x="456.86792452830184" y="665.9433962264152"/>
      <point x="480.66037735849056" y="676.8867924528303" type="curve"/>
      <point x="466.0566037735848" y="678.7924528301886" type="line"/>
      <point x="461.92452830188677" y="650.3396226415094" type="line"/>
    </contour>
  </outline>
</glyph>
<glyph name="Euro" format="2">
  <advance width="600.0"/>
  <unicode hex="20AC"/>
  <outline>
    <contour>
      <point x="301.1698113207548" y="-20.0" type="curve" smooth="yes"/>
      <point x="390.5094339622641" y="-20.0"/>
      <point x="451.9622641509434" y="3.0943396226415083"/>
      <point x="484.13207547169816" y="32.056603773584904" type="curve" smooth="yes"/>
      <point x="512.3773584905659" y="57.84905660377358"/>
      <point x="526.0754716981132" y="85.49056603773585"/>
      <point x="532.4716981132075" y="112.58490566037736" type="curve" smooth="yes"/>
      <point x="538.566037735849" y="137.8679245283019"/>
      <point x="536.5660377358491" y="168.54716981132074"/>
      <point x="529.566037735849" y="188.0377358490566" type="curve"/>
      <point x="523.566037735849" y="188.0377358490566" type="line"/>
      <point x="469.2641509433962" y="129.62264150943395"/>
      <point x="401.41509433962267" y="108.35849056603773"/>
      <point x="321.45283018867923" y="108.66037735849056" type="curve" smooth="yes"/>
      <point x="251.0566037735849" y="108.9622641509434"/>
      <point x="215.75471698113208" y="126.71698113207547"/>
      <point x="200.0377358490566" y="162.2075471698114" type="curve"/>
      <point x="200.49056603773587" y="198.58490566037733"/>
      <point x="204.49056603773582" y="235.66037735849056"/>
      <point x="213.2830188679245" y="274.6792452830189" type="curve" smooth="yes"/>
      <point x="217.73584905660374" y="294.79245283018867" type="line" smooth="yes"/>
      <point x="262.09433962264154" y="495.2830188679245"/>
      <point x="377.377358490566" y="597.2830188679245"/>
      <point x="497.6037735849057" y="597.2830188679245" type="curve" smooth="yes"/>
      <point x="542.6226415094341" y="597.2830188679245"/>
      <point x="576.7169811320755" y="584.1698113207547"/>
      <point x="599.3962264150945" y="561.6415094339624" type="curve"/>
      <point x="605.3962264150942" y="561.6415094339624" type="line"/>
      <point x="625.7358490566037" y="578.8301886792453"/>
      <point x="638.9811320754717" y="593.9245283018869"/>
      <point x="646.377358490566" y="621.8113207547169" type="curve" smooth="yes"/>
      <point x="652.9245283018867" y="650.3962264150944"/>
      <point x="647.6792452830188" y="671.9433962264152"/>
      <point x="633.6792452830189" y="688.3962264150944" type="curve" smooth="yes"/>
      <point x="619.2264150943396" y="705.3018867924528"/>
      <point x="577.2830188679245" y="720.0"/>
      <point x="507.7547169811321" y="720.0" type="curve" smooth="yes"/>
      <point x="309.66037735849056" y="720.0"/>
      <point x="154.16981132075472" y="564.0377358490566"/>
      <point x="98.41509433962266" y="337.35849056603774" type="curve" smooth="yes"/>
      <point x="92.50943396226417" y="313.4339622641509" type="line" smooth="yes"/>
      <point x="35.830188679245296" y="86.66037735849058"/>
      <point x="110.0566037735849" y="-20.0"/>
    </contour>
    <contour>
      <point x="64.81132075471699" y="471.1320754716981" type="line"/>
      <point x="62.113207547169814" y="465.58490566037733"/>
      <point x="58.41509433962265" y="458.18867924528297"/>
      <point x="55.566037735849065" y="446.9433962264151" type="curve" smooth="yes"/>
      <point x="45.47169811320755" y="404.41509433962267"/>
      <point x="60.81132075471699" y="376.7358490566038"/>
      <point x="119.26415094339622" y="376.7358490566038" type="curve" smooth="yes"/>
      <point x="502.43396226415086" y="376.7358490566038" type="line"/>
      <point x="505.28301886792445" y="380.58490566037733"/>
      <point x="507.98113207547163" y="386.2830188679245"/>
      <point x="509.9811320754716" y="397.52830188679246" type="curve" smooth="yes"/>
      <point x="518.3773584905659" y="447.79245283018867"/>
      <point x="496.6981132075472" y="471.1320754716981"/>
      <point x="434.54716981132066" y="471.1320754716981" type="curve"/>
    </contour>
    <contour>
      <point x="26.35849056603774" y="318.9622641509433" type="line"/>
      <point x="23.509433962264154" y="314.2641509433962"/>
      <point x="20.66037735849057" y="307.7169811320755"/>
      <point x="17.66037735849057" y="298.71698113207543" type="curve" smooth="yes"/>
      <point x="3.4716981132075526" y="255.54716981132074"/>
      <point x="24.301886792452834" y="225.41509433962264"/>
      <point x="74.56603773584906" y="225.41509433962264" type="curve" smooth="yes"/>
      <point x="463.8301886792452" y="225.41509433962264" type="line"/>
      <point x="466.5283018867924" y="230.11320754716982"/>
      <point x="469.2264150943396" y="235.811320754717"/>
      <point x="472.0754716981132" y="247.0566037735849" type="curve" smooth="yes"/>
      <point x="483.71698113207543" y="295.62264150943395"/>
      <point x="463.88679245283015" y="318.9622641509433"/>
      <point x="400.28301886792445" y="318.9622641509433" type="curve"/>
    </contour>
  </outline>
</glyph>
<glyph name="bitcoin" format="2">
  <advance width="600.0"/>
  <unicode hex="20BF"/>
  <outline>
    <contour>
      <point x="86.22641509433961" y="21.13207547169811" type="line"/>
      <point x="46.547169811320764" y="-25.150943396226417"/>
      <point x="30.698113207547173" y="-55.90566037735849"/>
      <point x="24.547169811320757" y="-85.0566037735849" type="curve" smooth="yes"/>
      <point x="16.000000000000004" y="-124.79245283018868"/>
      <point x="34.490566037735846" y="-138.58490566037736"/>
      <point x="72.16981132075472" y="-138.58490566037736" type="curve" smooth="yes"/>
      <point x="90.50943396226415" y="-138.58490566037736"/>
      <point x="107.69811320754715" y="-136.88679245283018"/>
      <point x="123.33962264150942" y="-133.18867924528303" type="curve"/>
      <point x="135.43396226415092" y="-85.45283018867924"/>
      <point x="172.71698113207543" y="-0.22641509433963591"/>
      <point x="197.96226415094338" y="62.358490566037716" type="curve"/>
      <point x="96.32075471698113" y="62.358490566037716" type="line"/>
    </contour>
    <contour>
      <point x="393.2641509433962" y="725.8490566037735" type="line"/>
      <point x="408.811320754717" y="745.3018867924527"/>
      <point x="418.2641509433962" y="763.1132075471698"/>
      <point x="423.4150943396226" y="783.622641509434" type="curve" smooth="yes"/>
      <point x="430.811320754717" y="814.9622641509434"/>
      <point x="413.77358490566036" y="829.9056603773585"/>
      <point x="373.84905660377353" y="829.9056603773585" type="curve"/>
      <point x="354.20754716981133" y="829.9056603773585"/>
      <point x="335.1698113207547" y="827.9056603773585"/>
      <point x="319.83018867924534" y="824.0566037735849" type="curve"/>
      <point x="303.188679245283" y="756.0377358490566"/>
      <point x="280.39622641509436" y="680.2075471698114"/>
      <point x="254.60377358490567" y="622.1698113207548" type="curve"/>
      <point x="367.1320754716981" y="622.1698113207548" type="line"/>
    </contour>
    <contour>
      <point x="230.66037735849056" y="-16.0" type="line"/>
      <point x="203.32075471698113" y="-50.641509433962256"/>
      <point x="192.32075471698113" y="-72.9433962264151"/>
      <point x="187.16981132075472" y="-95.84905660377359" type="curve" smooth="yes"/>
      <point x="180.47169811320754" y="-127.33962264150944"/>
      <point x="198.26415094339623" y="-138.58490566037736"/>
      <point x="232.54716981132074" y="-138.58490566037736" type="curve" smooth="yes"/>
      <point x="255.13207547169813" y="-138.58490566037736"/>
      <point x="274.8679245283019" y="-136.88679245283018"/>
      <point x="290.50943396226415" y="-133.18867924528303" type="curve"/>
      <point x="302.05660377358487" y="-86.9433962264151"/>
      <point x="331.0943396226415" y="1.1320754716981014"/>
      <point x="358.7358490566038" y="63.86792452830187" type="curve"/>
      <point x="250.45283018867923" y="63.86792452830187" type="line"/>
    </contour>
    <contour>
      <point x="535.6037735849056" y="693.1698113207547" type="line"/>
      <point x="563.9433962264151" y="723.0188679245283"/>
      <point x="580.0943396226415" y="750.377358490566"/>
      <point x="587.7924528301887" y="782.7735849056603" type="curve" smooth="yes"/>
      <point x="595.4905660377358" y="814.5660377358491"/>
      <point x="577.2452830188679" y="829.9056603773585"/>
      <point x="537.7735849056604" y="829.9056603773585" type="curve"/>
      <point x="517.2830188679245" y="829.9056603773585"/>
      <point x="502.33962264150944" y="827.9056603773585"/>
      <point x="486.6981132075472" y="824.0566037735849" type="curve"/>
      <point x="470.9056603773585" y="760.9811320754717"/>
      <point x="441.3207547169812" y="677.6603773584906"/>
      <point x="416.37735849056605" y="620.4716981132076" type="curve"/>
      <point x="512.622641509434" y="620.4716981132076" type="line"/>
    </contour>
    <contour>
      <point x="199.98113207547166" y="-10.0" type="curve"/>
      <point x="344.4339622641509" y="-10.0"/>
      <point x="474.0377358490566" y="52.33962264150943"/>
      <point x="506.6792452830188" y="182.35849056603774" type="curve" smooth="yes"/>
      <point x="508.1320754716981" y="188.16981132075472" type="line" smooth="yes"/>
      <point x="520.4339622641509" y="237.0754716981132"/>
      <point x="496.2830188679245" y="287.7358490566038"/>
      <point x="449.66037735849056" y="311.0377358490566" type="curve"/>
      <point x="449.66037735849056" y="334.7735849056604" type="line"/>
      <point x="241.92452830188677" y="336.47169811320754" type="line"/>
      <point x="241.92452830188677" y="322.62264150943395" type="line"/>
      <point x="270.6792452830189" y="322.62264150943395" type="line"/>
      <point x="359.54716981132077" y="301.6792452830188"/>
      <point x="392.62264150943395" y="267.2641509433962"/>
      <point x="378.0188679245283" y="210.39622641509433" type="curve" smooth="yes"/>
      <point x="375.8679245283019" y="201.79245283018867" type="line" smooth="yes"/>
      <point x="360.35849056603774" y="138.9056603773585"/>
      <point x="292.52830188679246" y="112.71698113207546"/>
      <point x="213.0188679245283" y="112.71698113207546" type="curve" smooth="yes"/>
      <point x="190.8679245283019" y="112.71698113207546"/>
      <point x="176.90566037735846" y="115.62264150943395"/>
      <point x="162.1320754716981" y="123.33962264150944" type="curve"/>
      <point x="173.9811320754717" y="244.09433962264154"/>
      <point x="247.6037735849056" y="363.1509433962264"/>
      <point x="270.0188679245283" y="486.056603773585" type="curve" smooth="yes"/>
      <point x="278.1698113207547" y="533.6603773584905"/>
      <point x="268.5283018867924" y="563.6415094339623"/>
      <point x="244.54716981132074" y="578.3396226415094" type="curve"/>
      <point x="254.2452830188679" y="596.8867924528302" type="line"/>
      <point x="167.84905660377362" y="596.1320754716982" type="line"/>
      <point x="144.13207547169813" y="426.37735849056605"/>
      <point x="49.73584905660378" y="284.0566037735849"/>
      <point x="31.67924528301888" y="126.0" type="curve"/>
      <point x="27.07547169811322" y="85.22641509433963"/>
      <point x="36.226415094339636" y="58.49056603773585"/>
      <point x="53.32075471698114" y="41.39622641509434" type="curve" smooth="yes"/>
      <point x="89.35849056603774" y="5.358490566037737"/>
      <point x="132.60377358490567" y="-10.0"/>
    </contour>
    <contour>
      <point x="132.6603773584906" y="700.0" type="curve"/>
      <point x="124.56603773584906" y="684.811320754717"/>
      <point x="117.47169811320757" y="670.622641509434"/>
      <point x="111.22641509433963" y="643.7924528301887" type="curve" smooth="yes"/>
      <point x="99.58490566037737" y="596.0754716981132"/>
      <point x="103.8867924528302" y="569.6415094339623"/>
      <point x="137.56603773584908" y="569.6415094339623" type="curve" smooth="yes"/>
      <point x="158.26415094339623" y="569.6415094339623"/>
      <point x="238.83018867924528" y="589.6415094339623"/>
      <point x="360.11320754716985" y="589.6415094339623" type="curve" smooth="yes"/>
      <point x="407.6981132075471" y="589.6415094339623"/>
      <point x="440.96226415094344" y="585.8867924528303"/>
      <point x="466.9245283018868" y="574.566037735849" type="curve" smooth="yes"/>
      <point x="470.0377358490566" y="555.7547169811321"/>
      <point x="468.49056603773585" y="530.9811320754718"/>
      <point x="461.58490566037733" y="504.50943396226415" type="curve" smooth="yes"/>
      <point x="458.433962264151" y="492.0566037735849" type="line" smooth="yes"/>
      <point x="438.7735849056604" y="414.3207547169811"/>
      <point x="368.6792452830189" y="374.88679245283015"/>
      <point x="276.45283018867923" y="374.88679245283015" type="curve" smooth="yes"/>
      <point x="245.2830188679245" y="374.88679245283015"/>
      <point x="237.07547169811318" y="379.03773584905656"/>
      <point x="218.52830188679243" y="386.3396226415094" type="curve"/>
      <point x="183.84905660377356" y="298.79245283018867" type="line" smooth="yes"/>
      <point x="217.1320754716981" y="304.6415094339623" type="line"/>
      <point x="229.9811320754717" y="285.39622641509436"/>
      <point x="243.49056603773582" y="275.39622641509436"/>
      <point x="274.45283018867923" y="275.39622641509436" type="curve" smooth="yes"/>
      <point x="427.5283018867924" y="275.39622641509436"/>
      <point x="558.8867924528302" y="362.9811320754717"/>
      <point x="595.5849056603773" y="493.7924528301887" type="curve" smooth="yes"/>
      <point x="597.8867924528303" y="502.15094339622647" type="line" smooth="yes"/>
      <point x="622.0377358490566" y="589.5660377358491"/>
      <point x="571.4716981132076" y="720.0"/>
      <point x="375.35849056603774" y="720.0" type="curve" smooth="yes"/>
      <point x="295.13207547169816" y="720.0"/>
      <point x="219.58490566037736" y="713.6037735849058"/>
    </contour>
  </outline>
</glyph>
<glyph name="emptyset" format="2">
  <advance width="650.0"/>
  <unicode hex="2205"/>
  <outline>
    <contour>
      <point x="409.188679245283" y="656.245283018868" type="curve" smooth="yes"/>
      <point x="217.67924528301887" y="656.245283018868"/>
      <point x="87.24528301886792" y="535.0754716981131"/>
      <point x="49.301886792452834" y="380.33962264150944" type="curve" smooth="yes"/>
      <point x="45.60377358490566" y="365.39622641509436" type="line" smooth="yes"/>
      <point x="-1.339622641509429" y="172.90566037735852"/>
      <point x="101.07547169811322" y="42.490566037735846"/>
      <point x="285.54716981132077" y="42.490566037735846" type="curve" smooth="yes"/>
      <point x="468.58490566037733" y="42.490566037735846"/>
      <point x="603.5283018867923" y="155.47169811320754"/>
      <point x="641.7924528301886" y="304.4528301886793" type="curve" smooth="yes"/>
      <point x="645.4905660377358" y="319.09433962264154" type="line" smooth="yes"/>
      <point x="694.0943396226414" y="507.7358490566038"/>
      <point x="601.5471698113207" y="656.245283018868"/>
    </contour>
    <contour>
      <point x="172.71698113207546" y="334.9245283018868" type="curve" smooth="yes"/>
      <point x="176.71698113207546" y="350.07547169811323" type="line" smooth="yes"/>
      <point x="203.0754716981132" y="450.5660377358491"/>
      <point x="283.99999999999994" y="522.188679245283"/>
      <point x="406.4339622641509" y="522.188679245283" type="curve" smooth="yes"/>
      <point x="449.11320754716985" y="522.188679245283"/>
      <point x="490.62264150943395" y="516.2830188679245"/>
      <point x="515.9811320754717" y="507.26415094339626" type="curve" smooth="yes"/>
      <point x="535.2264150943396" y="470.1320754716981"/>
      <point x="533.188679245283" y="419.84905660377353"/>
      <point x="519.2264150943396" y="362.15094339622647" type="curve" smooth="yes"/>
      <point x="516.0754716981131" y="348.6981132075472" type="line" smooth="yes"/>
      <point x="487.01886792452825" y="225.83018867924528"/>
      <point x="390.2830188679245" y="176.54716981132074"/>
      <point x="281.4150943396226" y="176.54716981132074" type="curve" smooth="yes"/>
      <point x="237.0" y="176.54716981132074"/>
      <point x="202.5471698113207" y="176.1509433962264"/>
      <point x="176.28301886792454" y="188.0" type="curve" smooth="yes"/>
      <point x="162.2830188679245" y="217.50943396226413"/>
      <point x="156.0" y="270.45283018867923"/>
    </contour>
    <contour>
      <point x="712.811320754717" y="721.9056603773585" type="curve"/>
      <point x="692.4716981132076" y="732.6981132075472"/>
      <point x="664.2452830188678" y="737.0943396226414"/>
      <point x="641.509433962264" y="737.0943396226414" type="curve" smooth="yes"/>
      <point x="602.4339622641508" y="737.0943396226414"/>
      <point x="577.4905660377358" y="716.3584905660377"/>
      <point x="547.6037735849056" y="670.0754716981132" type="curve" smooth="yes"/>
      <point x="392.67924528301893" y="425.64150943396226"/>
      <point x="164.9056603773585" y="187.30188679245282"/>
      <point x="-41.54716981132074" y="19.471698113207538" type="curve"/>
      <point x="-23.811320754716967" y="4.679245283018863"/>
      <point x="-2.4716981132075446" y="-9.66037735849057"/>
      <point x="27.66037735849057" y="-9.66037735849057" type="curve" smooth="yes"/>
      <point x="57.24528301886793" y="-9.66037735849057"/>
      <point x="86.98113207547169" y="1.830188679245278"/>
      <point x="133.45283018867923" y="40.75471698113206" type="curve"/>
      <point x="349.62264150943395" y="218.47169811320754"/>
      <point x="581.2830188679244" y="482.4150943396226"/>
    </contour>
  </outline>
</glyph>
<glyph name="greaterequal" format="2">
  <advance width="600.0"/>
  <unicode hex="2265"/>
  <outline>
    <contour>
      <point x="30.867924528301895" y="161.98113207547172" type="line"/>
      <point x="25.32075471698114" y="151.8867924528302"/>
      <point x="20.471698113207555" y="142.33962264150944"/>
      <point x="16.773584905660382" y="124.84905660377359" type="curve" smooth="yes"/>
      <point x="6.830188679245291" y="76.8301886792453"/>
      <point x="29.113207547169818" y="52.547169811320764"/>
      <point x="92.9622641509434" y="52.547169811320764" type="curve" smooth="yes"/>
      <point x="464.2641509433962" y="52.547169811320764" type="line"/>
      <point x="477.30188679245276" y="66.73584905660378"/>
      <point x="487.0943396226415" y="83.62264150943396"/>
      <point x="492.49056603773585" y="108.90566037735849" type="curve" smooth="yes"/>
      <point x="499.03773584905656" y="141.64150943396228"/>
      <point x="481.6981132075472" y="161.98113207547172"/>
      <point x="439.77358490566036" y="161.98113207547172" type="curve" smooth="yes"/>
    </contour>
    <contour>
      <point x="543.4528301886793" y="348.33962264150944" type="curve"/>
      <point x="552.2452830188679" y="362.2830188679245"/>
      <point x="558.4905660377359" y="376.0754716981132"/>
      <point x="562.1886792452831" y="392.5660377358491" type="curve" smooth="yes"/>
      <point x="568.7358490566038" y="421.6037735849057"/>
      <point x="563.0377358490565" y="443.94339622641513"/>
      <point x="531.4528301886792" y="459.8867924528302" type="curve" smooth="yes"/>
      <point x="447.49056603773585" y="503.1509433962264"/>
      <point x="308.9622641509434" y="540.9622641509434"/>
      <point x="145.15094339622644" y="559.4716981132076" type="curve"/>
      <point x="130.9622641509434" y="537.7358490566037"/>
      <point x="122.0188679245283" y="519.1509433962265"/>
      <point x="116.62264150943398" y="495.1698113207548" type="curve" smooth="yes"/>
      <point x="109.22641509433963" y="464.0377358490566"/>
      <point x="120.86792452830188" y="443.3018867924529"/>
      <point x="155.9433962264151" y="441.3018867924528" type="curve"/>
      <point x="284.09433962264154" y="430.6792452830189"/>
      <point x="345.37735849056605" y="418.9056603773586"/>
      <point x="435.00000000000006" y="387.6603773584906" type="curve"/>
      <point x="417.1509433962264" y="427.4150943396226" type="line"/>
      <point x="401.1509433962264" y="361.71698113207543" type="line"/>
      <point x="438.3018867924529" y="403.32075471698107" type="line"/>
      <point x="328.94339622641513" y="353.13207547169816"/>
      <point x="239.64150943396226" y="329.566037735849"/>
      <point x="77.33962264150944" y="307.77358490566036" type="curve"/>
      <point x="71.94339622641509" y="297.377358490566"/>
      <point x="67.39622641509433" y="285.4339622641509"/>
      <point x="62.84905660377358" y="265.3962264150943" type="curve" smooth="yes"/>
      <point x="52.905660377358494" y="222.9245283018868"/>
      <point x="70.64150943396227" y="203.3396226415094"/>
      <point x="102.47169811320755" y="203.3396226415094" type="curve" smooth="yes"/>
      <point x="124.81132075471697" y="203.3396226415094"/>
      <point x="155.1132075471698" y="207.33962264150944"/>
      <point x="194.1132075471698" y="216.73584905660377" type="curve" smooth="yes"/>
      <point x="336.33962264150944" y="251.16981132075472"/>
      <point x="447.6981132075472" y="293.1132075471698"/>
    </contour>
  </outline>
</glyph>
<glyph name="L.sans" format="2">
  <advance width="550.0"/>
  <anchor x="244.7924528301887" y="711.0" name="top"/>
  <anchor x="227.54716981132077" y="-1.0" name="bottom"/>
  <anchor x="466.5094339622642" y="404.24528301886795" name="dot"/>
  <anchor x="518.6603773584906" y="593.1698113207547" name="caronslovak"/>
  <anchor x="166.77358490566036" y="367.8490566037736" name="slash"/>
  <outline>
    <contour>
      <point x="177.90566037735846" y="0.0" type="curve" smooth="yes"/>
      <point x="438.8301886792453" y="0.0" type="line"/>
      <point x="446.2264150943396" y="14.490566037735848"/>
      <point x="452.47169811320754" y="29.83018867924528"/>
      <point x="457.7169811320755" y="48.415094339622634" type="curve" smooth="yes"/>
      <point x="471.0566037735849" y="105.07547169811319"/>
      <point x="450.3207547169811" y="130.35849056603772"/>
      <point x="408.30188679245276" y="130.35849056603772" type="curve" smooth="yes"/>
      <point x="168.81132075471695" y="130.35849056603772" type="line"/>
      <point x="184.1509433962264" y="270.20754716981133"/>
      <point x="272.32075471698107" y="415.50943396226415"/>
      <point x="298.13207547169804" y="572.5849056603773" type="curve" smooth="yes"/>
      <point x="310.73584905660374" y="651.7358490566037"/>
      <point x="295.6981132075472" y="710.0"/>
      <point x="236.2830188679245" y="710.0" type="curve" smooth="yes"/>
      <point x="209.60377358490567" y="710.0"/>
      <point x="186.77358490566036" y="706.4528301886793"/>
      <point x="164.49056603773585" y="701.0566037735849" type="curve"/>
      <point x="170.43396226415095" y="667.1509433962265"/>
      <point x="172.98113207547172" y="630.6226415094341"/>
      <point x="164.22641509433961" y="587.7547169811322" type="curve" smooth="yes"/>
      <point x="133.8679245283019" y="438.43396226415103"/>
      <point x="72.69811320754718" y="321.6603773584905"/>
      <point x="41.05660377358491" y="175.7358490566038" type="curve" smooth="yes"/>
      <point x="21.566037735849065" y="87.15094339622641"/>
      <point x="85.05660377358491" y="0.0"/>
    </contour>
  </outline>
</glyph>
<glyph name="at.alt" format="2">
  <advance width="1050.0"/>
  <outline>
    <contour>
      <point x="109.15094339622642" y="298.9056603773585" type="curve" smooth="yes"/>
      <point x="106.45283018867926" y="287.2641509433962" type="line" smooth="yes"/>
      <point x="46.05660377358491" y="29.69811320754718"/>
      <point x="134.77358490566039" y="-137.54716981132077"/>
      <point x="505.84905660377353" y="-137.54716981132077" type="curve" smooth="yes"/>
      <point x="607.6792452830189" y="-137.54716981132077"/>
      <point x="683.5283018867924" y="-125.24528301886792"/>
      <point x="729.6603773584906" y="-98.39622641509433" type="curve" smooth="yes"/>
      <point x="759.0566037735848" y="-80.05660377358492"/>
      <point x="771.7547169811321" y="-57.71698113207548"/>
      <point x="778.4528301886792" y="-22.377358490566042" type="curve" smooth="yes"/>
      <point x="781.9999999999999" y="-2.943396226415098"/>
      <point x="781.9999999999999" y="9.150943396226397"/>
      <point x="781.8490566037735" y="21.79245283018865" type="curve"/>
      <point x="775.8490566037736" y="21.79245283018865" type="line"/>
      <point x="664.6603773584906" y="-8.47169811320757"/>
      <point x="587.9622641509433" y="-19.924528301886824"/>
      <point x="485.7358490566038" y="-19.924528301886824" type="curve" smooth="yes"/>
      <point x="375.8301886792453" y="-19.924528301886824"/>
      <point x="300.754716981132" y="-11.509433962264165"/>
      <point x="239.92452830188677" y="15.886792452830178" type="curve" smooth="yes"/>
      <point x="209.9433962264151" y="84.79245283018867"/>
      <point x="205.75471698113205" y="162.13207547169813"/>
      <point x="225.62264150943395" y="256.7358490566038" type="curve" smooth="yes"/>
      <point x="227.77358490566036" y="267.0377358490566" type="line" smooth="yes"/>
      <point x="271.33962264150944" y="476.96226415094344"/>
      <point x="449.20754716981133" y="629.0566037735849"/>
      <point x="671.6037735849058" y="629.0566037735849" type="curve" smooth="yes"/>
      <point x="724.4150943396226" y="629.0566037735849"/>
      <point x="770.9811320754717" y="622.3018867924528"/>
      <point x="811.943396226415" y="607.6415094339623" type="curve"/>
      <point x="827.4339622641509" y="548.5471698113207"/>
      <point x="826.0000000000001" y="489.3018867924529"/>
      <point x="812.6415094339624" y="418.5094339622641" type="curve" smooth="yes"/>
      <point x="795.7924528301887" y="331.4150943396226"/>
      <point x="767.3962264150944" y="248.43396226415092"/>
      <point x="756.245283018868" y="158.0566037735849" type="curve" smooth="yes"/>
      <point x="747.0943396226415" y="83.77358490566036"/>
      <point x="781.1320754716982" y="60.83018867924527"/>
      <point x="881.9056603773585" y="60.83018867924527" type="curve"/>
      <point x="895.5471698113207" y="60.83018867924527" type="line"/>
      <point x="893.3962264150942" y="96.77358490566037"/>
      <point x="892.0943396226414" y="127.35849056603772"/>
      <point x="900.943396226415" y="170.1132075471698" type="curve" smooth="yes"/>
      <point x="919.7358490566037" y="258.0943396226415"/>
      <point x="951.4339622641509" y="339.6792452830188"/>
      <point x="966.9811320754717" y="427.2830188679245" type="curve" smooth="yes"/>
      <point x="1003.2264150943397" y="631.1509433962264"/>
      <point x="898.9245283018868" y="763.9622641509435"/>
      <point x="677.3396226415094" y="763.9622641509435" type="curve" smooth="yes"/>
      <point x="400.37735849056605" y="763.9622641509435"/>
      <point x="174.24528301886792" y="578.811320754717"/>
    </contour>
    <contour>
      <point x="828.8490566037736" y="320.6981132075472" type="line"/>
      <point x="729.3584905660377" y="238.94339622641508"/>
      <point x="655.0943396226415" y="215.2452830188679"/>
      <point x="596.4150943396227" y="215.2452830188679" type="curve" smooth="yes"/>
      <point x="529.7547169811321" y="215.2452830188679"/>
      <point x="516.2264150943397" y="251.5471698113207"/>
      <point x="525.9433962264152" y="301.1509433962264" type="curve" smooth="yes"/>
      <point x="528.0943396226415" y="312.3018867924528" type="line" smooth="yes"/>
      <point x="533.8490566037736" y="341.26415094339626"/>
      <point x="544.8679245283018" y="362.73584905660374"/>
      <point x="561.8867924528302" y="389.0943396226415" type="curve" smooth="yes"/>
      <point x="596.4528301886793" y="399.66037735849056"/>
      <point x="629.1698113207547" y="406.5660377358491"/>
      <point x="684.0188679245283" y="406.5660377358491" type="curve" smooth="yes"/>
      <point x="735.2830188679246" y="406.5660377358491"/>
      <point x="775.3207547169811" y="396.8490566037736"/>
      <point x="814.7924528301887" y="382.71698113207543" type="curve"/>
      <point x="858.6603773584906" y="475.77358490566036" type="line"/>
      <point x="810.0377358490565" y="475.77358490566036" type="line"/>
      <point x="780.8113207547169" y="503.13207547169804"/>
      <point x="738.3396226415094" y="518.9433962264151"/>
      <point x="683.4150943396227" y="518.9433962264151" type="curve" smooth="yes"/>
      <point x="524.2830188679245" y="518.9433962264151"/>
      <point x="397.811320754717" y="411.2641509433962"/>
      <point x="372.50943396226415" y="299.8679245283019" type="curve" smooth="yes"/>
      <point x="370.35849056603774" y="290.4150943396226" type="line" smooth="yes"/>
      <point x="338.2641509433962" y="146.45283018867923"/>
      <point x="411.7924528301886" y="71.84905660377359"/>
      <point x="510.56603773584914" y="71.84905660377359" type="curve" smooth="yes"/>
      <point x="589.9622641509435" y="71.84905660377359"/>
      <point x="682.0943396226414" y="101.79245283018867"/>
      <point x="751.1886792452831" y="184.50943396226413" type="curve"/>
      <point x="811.5471698113207" y="184.50943396226413" type="line"/>
    </contour>
  </outline>
</glyph>
<glyph name="braceleft.case" format="2">
  <advance width="600.0"/>
  <outline>
    <contour>
      <point x="360.3018867924528" y="214.0943396226415" type="curve" smooth="yes"/>
      <point x="372.7547169811321" y="260.26415094339626"/>
      <point x="352.0" y="297.81132075471703"/>
      <point x="289.45283018867923" y="311.622641509434" type="curve"/>
      <point x="291.45283018867923" y="317.622641509434" type="line"/>
      <point x="364.6981132075471" y="332.622641509434"/>
      <point x="395.0566037735849" y="362.3207547169811"/>
      <point x="410.20754716981133" y="423.16981132075466" type="curve" smooth="yes"/>
      <point x="422.9622641509434" y="472.58490566037733"/>
      <point x="409.8301886792453" y="524.9433962264152"/>
      <point x="406.1509433962264" y="561.1698113207547" type="curve" smooth="yes"/>
      <point x="404.60377358490564" y="569.7169811320755"/>
      <point x="403.2075471698113" y="576.7169811320755"/>
      <point x="403.5094339622641" y="580.1698113207548" type="curve"/>
      <point x="429.1132075471698" y="598.3396226415095"/>
      <point x="461.24528301886795" y="606.7547169811321"/>
      <point x="504.41509433962267" y="606.7547169811321" type="curve" smooth="yes"/>
      <point x="531.5660377358491" y="606.7547169811321"/>
      <point x="553.8679245283018" y="603.9056603773586"/>
      <point x="568.6226415094341" y="598.7547169811321" type="curve"/>
      <point x="574.6226415094341" y="598.7547169811321" type="line"/>
      <point x="582.0188679245283" y="613.245283018868"/>
      <point x="589.2641509433963" y="633.6792452830189"/>
      <point x="594.6603773584906" y="654.566037735849" type="curve" smooth="yes"/>
      <point x="607.3018867924528" y="706.1320754716982"/>
      <point x="585.5660377358491" y="750.0"/>
      <point x="529.3773584905662" y="750.0" type="curve"/>
      <point x="525.2264150943396" y="750.0" type="line" smooth="yes"/>
      <point x="418.3018867924528" y="750.0"/>
      <point x="316.3207547169811" y="700.2452830188679"/>
      <point x="300.1698113207547" y="628.8490566037735" type="curve" smooth="yes"/>
      <point x="298.3207547169811" y="620.6037735849056" type="line" smooth="yes"/>
      <point x="287.5660377358491" y="572.1886792452831"/>
      <point x="305.7924528301887" y="506.6603773584905"/>
      <point x="293.0377358490566" y="449.6981132075472" type="curve" smooth="yes"/>
      <point x="280.7358490566038" y="394.9433962264151"/>
      <point x="241.6603773584905" y="384.37735849056605"/>
      <point x="155.9811320754717" y="384.37735849056605" type="curve" smooth="yes"/>
      <point x="123.45283018867923" y="384.37735849056605" type="line"/>
      <point x="113.66037735849058" y="369.33962264150944"/>
      <point x="107.41509433962264" y="353.0"/>
      <point x="102.0188679245283" y="332.71698113207543" type="curve" smooth="yes"/>
      <point x="88.67924528301887" y="278.2075471698113"/>
      <point x="101.56603773584904" y="260.50943396226415"/>
      <point x="142.188679245283" y="260.50943396226415" type="curve" smooth="yes"/>
      <point x="146.73584905660374" y="260.50943396226415" type="line" smooth="yes"/>
      <point x="213.52830188679246" y="260.50943396226415"/>
      <point x="238.4528301886793" y="243.94339622641513"/>
      <point x="226.00000000000003" y="196.13207547169813" type="curve" smooth="yes"/>
      <point x="212.09433962264154" y="140.50943396226415"/>
      <point x="161.62264150943398" y="88.67924528301887"/>
      <point x="152.0188679245283" y="40.11320754716981" type="curve" smooth="yes"/>
      <point x="150.16981132075472" y="30.86792452830189" type="line" smooth="yes"/>
      <point x="136.16981132075472" y="-40.830188679245275"/>
      <point x="183.3584905660378" y="-88.98113207547169"/>
      <point x="305.39622641509436" y="-88.98113207547169" type="curve" smooth="yes"/>
      <point x="310.54716981132077" y="-88.98113207547169" type="line" smooth="yes"/>
      <point x="377.1132075471698" y="-88.98113207547169"/>
      <point x="416.79245283018867" y="-51.35849056603774"/>
      <point x="435.5283018867924" y="29.07547169811319" type="curve" smooth="yes"/>
      <point x="438.37735849056605" y="42.62264150943395"/>
      <point x="439.37735849056605" y="58.1132075471698"/>
      <point x="438.5283018867924" y="67.50943396226413" type="curve"/>
      <point x="432.5283018867924" y="67.50943396226413" type="line"/>
      <point x="403.64150943396226" y="58.11320754716979"/>
      <point x="382.94339622641513" y="55.26415094339621"/>
      <point x="354.39622641509436" y="55.26415094339621" type="curve" smooth="yes"/>
      <point x="320.05660377358487" y="55.26415094339621"/>
      <point x="295.5283018867924" y="61.528301886792434"/>
      <point x="275.6792452830189" y="75.54716981132074" type="curve"/>
      <point x="277.377358490566" y="78.15094339622641"/>
      <point x="280.0754716981132" y="83.45283018867924"/>
      <point x="287.1698113207547" y="91.45283018867923" type="curve" smooth="yes"/>
      <point x="317.1509433962264" y="130.1698113207547"/>
      <point x="347.0" y="165.9245283018868"/>
    </contour>
  </outline>
</glyph>
<glyph name="bracketleft.case" format="2">
  <advance width="500.0"/>
  <outline>
    <contour>
      <point x="357.54716981132077" y="-59.0377358490566" type="line"/>
      <point x="366.33962264150944" y="-44.0"/>
      <point x="373.433962264151" y="-28.264150943396228"/>
      <point x="378.83018867924534" y="-7.528301886792454" type="curve" smooth="yes"/>
      <point x="394.1698113207548" y="51.83018867924527"/>
      <point x="382.37735849056605" y="70.47169811320754"/>
      <point x="342.7547169811321" y="70.47169811320754" type="curve"/>
      <point x="227.9245283018868" y="70.47169811320754" type="line"/>
      <point x="248.16981132075472" y="281.16981132075466"/>
      <point x="355.54716981132077" y="412.0188679245283"/>
      <point x="372.84905660377353" y="612.0" type="curve"/>
      <point x="537.9056603773586" y="612.0" type="line"/>
      <point x="546.8490566037736" y="624.6415094339624"/>
      <point x="554.0943396226415" y="641.6792452830189"/>
      <point x="559.4905660377359" y="660.566037735849" type="curve" smooth="yes"/>
      <point x="572.6792452830189" y="714.867924528302"/>
      <point x="561.4905660377358" y="741.5094339622641"/>
      <point x="528.3584905660377" y="741.5094339622641" type="curve"/>
      <point x="309.566037735849" y="741.5094339622641" type="line" smooth="yes"/>
      <point x="281.2264150943396" y="741.5094339622641"/>
      <point x="262.6792452830189" y="739.6603773584906"/>
      <point x="244.18867924528308" y="734.9622641509434" type="curve"/>
      <point x="245.88679245283018" y="699.4150943396226"/>
      <point x="241.18867924528308" y="663.9245283018869"/>
      <point x="236.03773584905665" y="623.0188679245283" type="curve" smooth="yes"/>
      <point x="206.03773584905662" y="396.54716981132077"/>
      <point x="103.98113207547172" y="293.88679245283015"/>
      <point x="81.52830188679248" y="58.77358490566036" type="curve" smooth="yes"/>
      <point x="76.13207547169813" y="4.962264150943387"/>
      <point x="105.20754716981133" y="-59.0377358490566"/>
      <point x="148.37735849056602" y="-59.0377358490566" type="curve" smooth="yes"/>
    </contour>
  </outline>
</glyph>
<glyph name="check" format="2">
  <advance width="600.0"/>
  <outline>
    <contour>
      <point x="374.2075471698113" y="119.50943396226415" type="line"/>
      <point x="441.8679245283019" y="306.50943396226415"/>
      <point x="522.5283018867924" y="510.1509433962264"/>
      <point x="615.4905660377358" y="661.9245283018868" type="curve"/>
      <point x="599.0" y="681.7169811320755"/>
      <point x="578.2075471698113" y="694.9622641509434"/>
      <point x="556.0188679245283" y="694.9622641509434" type="curve" smooth="yes"/>
      <point x="535.377358490566" y="694.9622641509434"/>
      <point x="504.0" y="688.1132075471698"/>
      <point x="481.35849056603774" y="649.9811320754717" type="curve" smooth="yes"/>
      <point x="412.4339622641509" y="535.811320754717"/>
      <point x="353.4528301886793" y="392.9622641509433"/>
      <point x="297.0" y="215.43396226415092" type="curve"/>
      <point x="336.0" y="231.43396226415092" type="line"/>
      <point x="260.0" y="231.43396226415092" type="line"/>
      <point x="304.5094339622641" y="215.43396226415092" type="line"/>
      <point x="267.16981132075466" y="281.79245283018867"/>
      <point x="240.8867924528302" y="357.1132075471698"/>
      <point x="226.62264150943395" y="442.66037735849056" type="curve"/>
      <point x="203.79245283018867" y="449.75471698113205"/>
      <point x="185.0566037735849" y="453.3018867924528"/>
      <point x="155.43396226415095" y="453.3018867924528" type="curve" smooth="yes"/>
      <point x="127.33962264150942" y="453.3018867924528"/>
      <point x="113.0" y="442.8490566037736"/>
      <point x="113.0" y="425.75471698113205" type="curve" smooth="yes"/>
      <point x="113.0" y="404.8679245283019"/>
      <point x="116.45283018867924" y="386.3207547169811"/>
      <point x="123.20754716981132" y="359.47169811320754" type="curve" smooth="yes"/>
      <point x="138.56603773584908" y="297.6792452830189"/>
      <point x="171.5849056603774" y="211.49056603773585"/>
      <point x="206.6037735849057" y="161.03773584905662" type="curve" smooth="yes"/>
      <point x="228.6981132075472" y="127.9056603773585"/>
      <point x="244.94339622641513" y="119.50943396226415"/>
      <point x="293.566037735849" y="119.50943396226415" type="curve" smooth="yes"/>
    </contour>
  </outline>
</glyph>
<glyph name="dollar_braceleft.code" format="2">
  <advance width="1200.0"/>
  <outline>
    <contour>
      <point x="899.377358490566" y="167.30188679245282" type="curve" smooth="yes"/>
      <point x="914.433962264151" y="231.05660377358487"/>
      <point x="894.0754716981132" y="272.7358490566038"/>
      <point x="826.2264150943395" y="289.3018867924528" type="curve"/>
      <point x="827.377358490566" y="295.3018867924528" type="line"/>
      <point x="902.7358490566038" y="317.3018867924529"/>
      <point x="944.2452830188679" y="356.7735849056604"/>
      <point x="964.0943396226414" y="427.47169811320754" type="curve" smooth="yes"/>
      <point x="979.8490566037735" y="484.03773584905656"/>
      <point x="972.1132075471698" y="555.622641509434"/>
      <point x="964.132075471698" y="607.056603773585" type="curve" smooth="yes"/>
      <point x="963.433962264151" y="611.2075471698114"/>
      <point x="963.1886792452831" y="615.566037735849"/>
      <point x="963.7924528301886" y="619.1698113207547" type="curve"/>
      <point x="990.8867924528302" y="633.4339622641509"/>
      <point x="1026.3584905660375" y="640.6415094339623"/>
      <point x="1065.0377358490564" y="640.6415094339623" type="curve" smooth="yes"/>
      <point x="1090.8490566037735" y="640.6415094339623"/>
      <point x="1115.0000000000002" y="637.4905660377358"/>
      <point x="1130.1509433962265" y="632.6415094339623" type="curve"/>
      <point x="1136.1509433962265" y="632.6415094339623" type="line"/>
      <point x="1143.5471698113206" y="646.9811320754717"/>
      <point x="1148.5471698113206" y="659.0754716981132"/>
      <point x="1153.943396226415" y="679.9622641509434" type="curve" smooth="yes"/>
      <point x="1166.5849056603772" y="731.377358490566"/>
      <point x="1143.0943396226414" y="770.0"/>
      <point x="1102.735849056604" y="770.0" type="curve"/>
      <point x="1098.5849056603774" y="770.0" type="line" smooth="yes"/>
      <point x="963.2452830188679" y="770.0"/>
      <point x="875.754716981132" y="723.0188679245282"/>
      <point x="857.6037735849056" y="650.4150943396226" type="curve" smooth="yes"/>
      <point x="855.754716981132" y="643.0188679245282" type="line" smooth="yes"/>
      <point x="842.3018867924527" y="590.3584905660377"/>
      <point x="864.5283018867924" y="525.9433962264151"/>
      <point x="845.2264150943396" y="456.188679245283" type="curve" smooth="yes"/>
      <point x="827.2264150943396" y="392.33962264150944"/>
      <point x="785.3962264150944" y="361.35849056603774"/>
      <point x="689.377358490566" y="361.35849056603774" type="curve" smooth="yes"/>
      <point x="532.6981132075471" y="361.35849056603774" type="line"/>
      <point x="508.0566037735848" y="238.0943396226415" type="line"/>
      <point x="690.0188679245283" y="238.0943396226415" type="line" smooth="yes"/>
      <point x="746.622641509434" y="238.0943396226415"/>
      <point x="779.2830188679246" y="204.7547169811321"/>
      <point x="765.5283018867924" y="140.69811320754715" type="curve" smooth="yes"/>
      <point x="745.7735849056604" y="50.54716981132076"/>
      <point x="694.2452830188679" y="1.1509433962264133"/>
      <point x="683.2452830188678" y="-47.566037735849065" type="curve" smooth="yes"/>
      <point x="681.3962264150942" y="-54.415094339622655" type="line" smooth="yes"/>
      <point x="664.1509433962264" y="-126.32075471698113"/>
      <point x="715.0377358490565" y="-172.0"/>
      <point x="826.0377358490565" y="-172.0" type="curve" smooth="yes"/>
      <point x="833.7358490566038" y="-172.0" type="line" smooth="yes"/>
      <point x="905.8490566037735" y="-172.0"/>
      <point x="946.9245283018867" y="-138.62264150943398"/>
      <point x="963.8113207547169" y="-75.16981132075473" type="curve" smooth="yes"/>
      <point x="968.3584905660376" y="-57.830188679245296"/>
      <point x="968.2075471698113" y="-40.49056603773587"/>
      <point x="967.0566037735848" y="-29.39622641509436" type="curve"/>
      <point x="961.0566037735848" y="-29.39622641509436" type="line"/>
      <point x="932.867924528302" y="-37.94339622641512"/>
      <point x="910.7735849056604" y="-41.641509433962284"/>
      <point x="880.2641509433962" y="-41.641509433962284" type="curve" smooth="yes"/>
      <point x="848.2830188679245" y="-41.641509433962284"/>
      <point x="821.6603773584905" y="-36.28301886792455"/>
      <point x="801.811320754717" y="-22.867924528301902" type="curve"/>
      <point x="803.5094339622642" y="-19.415094339622655"/>
      <point x="805.3584905660376" y="-14.96226415094341"/>
      <point x="807.3584905660379" y="-12.056603773584918" type="curve" smooth="yes"/>
      <point x="836.0377358490566" y="33.43396226415093"/>
      <point x="882.0188679245283" y="94.64150943396226"/>
    </contour>
    <contour>
      <point x="302.1698113207547" y="-18.79245283018868" type="curve" smooth="yes"/>
      <point x="469.1320754716981" y="-18.79245283018868"/>
      <point x="570.1886792452831" y="41.41509433962265"/>
      <point x="598.188679245283" y="152.11320754716982" type="curve" smooth="yes"/>
      <point x="601.7358490566038" y="166.45283018867923" type="line" smooth="yes"/>
      <point x="615.7358490566038" y="222.56603773584908"/>
      <point x="630.0" y="300.2830188679245"/>
      <point x="634.0754716981133" y="361.35849056603774" type="curve"/>
      <point x="516.132075471698" y="360.50943396226415"/>
      <point x="480.1132075471698" y="364.50943396226415"/>
      <point x="438.11320754716974" y="383.0566037735849" type="curve" smooth="yes"/>
      <point x="402.24528301886795" y="398.811320754717" type="line" smooth="yes"/>
      <point x="337.84905660377353" y="427.07547169811323"/>
      <point x="318.6981132075472" y="456.98113207547175"/>
      <point x="329.9056603773585" y="494.1698113207546" type="curve" smooth="yes"/>
      <point x="332.0566037735849" y="500.77358490566047" type="line" smooth="yes"/>
      <point x="351.3584905660378" y="559.0377358490567"/>
      <point x="436.18867924528297" y="589.6415094339621"/>
      <point x="531.6415094339623" y="589.6415094339621" type="curve" smooth="yes"/>
      <point x="593.5471698113207" y="589.6415094339621"/>
      <point x="625.7924528301887" y="577.6415094339624"/>
      <point x="648.3018867924528" y="553.7924528301887" type="curve"/>
      <point x="654.3018867924529" y="553.7924528301887" type="line"/>
      <point x="676.1320754716982" y="573.9245283018869"/>
      <point x="690.6226415094341" y="602.1509433962262"/>
      <point x="696.1698113207548" y="623.1886792452831" type="curve" smooth="yes"/>
      <point x="702.5660377358491" y="647.4716981132076"/>
      <point x="705.1132075471698" y="668.3584905660379"/>
      <point x="685.9245283018869" y="687.8490566037735" type="curve" smooth="yes"/>
      <point x="667.9811320754718" y="706.2452830188679"/>
      <point x="625.9811320754716" y="720.0"/>
      <point x="555.5283018867925" y="720.0" type="curve" smooth="yes"/>
      <point x="387.16981132075466" y="720.0"/>
      <point x="245.43396226415095" y="650.7735849056604"/>
      <point x="215.43396226415098" y="529.5471698113208" type="curve" smooth="yes"/>
      <point x="212.58490566037736" y="518.3018867924528" type="line" smooth="yes"/>
      <point x="196.0754716981132" y="453.22641509433964"/>
      <point x="198.45283018867926" y="362.11320754716985"/>
      <point x="337.49056603773585" y="305.01886792452837" type="curve" smooth="yes"/>
      <point x="420.5849056603774" y="271.3207547169811" type="line" smooth="yes"/>
      <point x="475.0754716981132" y="248.7547169811321"/>
      <point x="493.86792452830184" y="209.9056603773585"/>
      <point x="483.811320754717" y="163.73584905660374" type="curve" smooth="yes"/>
      <point x="482.66037735849056" y="158.28301886792454" type="line" smooth="yes"/>
      <point x="445.26415094339626" y="127.79245283018864"/>
      <point x="391.33962264150944" y="111.56603773584904"/>
      <point x="334.54716981132077" y="111.56603773584904" type="curve" smooth="yes"/>
      <point x="229.99999999999997" y="111.56603773584904"/>
      <point x="166.1509433962264" y="141.81132075471695"/>
      <point x="128.86792452830187" y="199.26415094339617" type="curve"/>
      <point x="122.8679245283019" y="199.26415094339617" type="line"/>
      <point x="112.32075471698113" y="185.01886792452828"/>
      <point x="102.07547169811322" y="165.9811320754717"/>
      <point x="96.37735849056605" y="141.9433962264151" type="curve" smooth="yes"/>
      <point x="83.03773584905662" y="91.58490566037736"/>
      <point x="96.0754716981132" y="50.41509433962264"/>
      <point x="112.01886792452832" y="34.01886792452831" type="curve" smooth="yes"/>
      <point x="146.56603773584905" y="-2.1886792452830175"/>
      <point x="207.62264150943398" y="-18.79245283018868"/>
    </contour>
    <contour>
      <point x="476.83018867924534" y="430.1698113207547" type="curve"/>
      <point x="538.566037735849" y="527.3962264150944"/>
      <point x="601.0188679245284" y="668.9056603773585"/>
      <point x="633.6603773584906" y="783.4528301886793" type="curve" smooth="yes"/>
      <point x="654.5471698113207" y="858.1132075471698"/>
      <point x="640.0000000000001" y="893.4905660377359"/>
      <point x="581.5849056603773" y="893.4905660377359" type="curve" smooth="yes"/>
      <point x="558.0" y="893.4905660377359"/>
      <point x="536.9622641509435" y="889.7924528301887"/>
      <point x="521.4716981132075" y="881.8490566037735" type="curve"/>
      <point x="526.1698113207548" y="856.1509433962265"/>
      <point x="526.1698113207548" y="829.0566037735848"/>
      <point x="518.1132075471698" y="776.4905660377359" type="curve" smooth="yes"/>
      <point x="502.3584905660377" y="674.1509433962265"/>
      <point x="480.9811320754717" y="582.0943396226415"/>
      <point x="442.98113207547163" y="493.92452830188677" type="curve" smooth="yes"/>
      <point x="434.73584905660374" y="476.1320754716981"/>
      <point x="437.0377358490566" y="453.3018867924528"/>
      <point x="448.4905660377358" y="443.3584905660377" type="curve" smooth="yes"/>
      <point x="458.03773584905656" y="434.566037735849"/>
      <point x="467.58490566037733" y="431.0188679245283"/>
    </contour>
    <contour>
      <point x="335.1320754716981" y="239.16981132075472" type="curve"/>
      <point x="272.4905660377359" y="136.07547169811318"/>
      <point x="216.33962264150944" y="21.679245283018854"/>
      <point x="183.60377358490567" y="-87.50943396226417" type="curve" smooth="yes"/>
      <point x="162.0188679245283" y="-159.62264150943398"/>
      <point x="176.26415094339623" y="-195.0"/>
      <point x="234.22641509433961" y="-195.0" type="curve" smooth="yes"/>
      <point x="257.8113207547169" y="-195.0"/>
      <point x="278.84905660377365" y="-191.30188679245282"/>
      <point x="294.3396226415095" y="-183.35849056603774" type="curve"/>
      <point x="290.09433962264154" y="-157.66037735849056"/>
      <point x="290.2452830188679" y="-130.56603773584905"/>
      <point x="297.3962264150944" y="-87.01886792452831" type="curve" smooth="yes"/>
      <point x="312.1509433962264" y="6.339622641509422"/>
      <point x="335.49056603773585" y="92.62264150943398"/>
      <point x="371.622641509434" y="175.90566037735852" type="curve" smooth="yes"/>
      <point x="379.0188679245283" y="193.45283018867926"/>
      <point x="374.9245283018868" y="215.5849056603774"/>
      <point x="363.0188679245283" y="225.8301886792453" type="curve" smooth="yes"/>
      <point x="353.622641509434" y="234.62264150943398"/>
      <point x="344.377358490566" y="238.16981132075472"/>
    </contour>
  </outline>
</glyph>
<glyph name="equal_greater.code" format="2">
  <advance width="1200.0"/>
  <outline>
    <contour>
      <point x="434.188679245283" y="308.94339622641513" type="curve" smooth="yes"/>
      <point x="188.62264150943398" y="308.94339622641513" type="line"/>
      <point x="179.83018867924528" y="289.50943396226415"/>
      <point x="171.73584905660377" y="268.9245283018868"/>
      <point x="166.33962264150946" y="247.33962264150944" type="curve" smooth="yes"/>
      <point x="156.39622641509436" y="206.41509433962264"/>
      <point x="162.7547169811321" y="169.7924528301887"/>
      <point x="211.67924528301887" y="169.7924528301887" type="curve"/>
      <point x="339.5849056603774" y="169.7924528301887" type="line" smooth="yes"/>
      <point x="490.8867924528302" y="169.7924528301887"/>
      <point x="604.0188679245283" y="188.3207547169811"/>
      <point x="733.1509433962265" y="224.49056603773582" type="curve"/>
      <point x="722.7547169811321" y="185.0566037735849" type="line"/>
      <point x="881.3773584905659" y="304.6981132075472" type="line"/>
      <point x="813.7735849056604" y="307.24528301886795"/>
      <point x="630.5283018867925" y="308.94339622641513"/>
    </contour>
    <contour>
      <point x="1024.1320754716983" y="301.9245283018868" type="curve"/>
      <point x="1027.9811320754716" y="311.37735849056605"/>
      <point x="1038.4716981132076" y="348.3962264150943"/>
      <point x="1041.622641509434" y="358.6981132075471" type="curve" smooth="yes"/>
      <point x="1049.867924528302" y="393.6792452830189"/>
      <point x="1043.867924528302" y="422.2075471698113"/>
      <point x="1012.8867924528303" y="469.92452830188677" type="curve" smooth="yes"/>
      <point x="963.9622641509435" y="543.9433962264151"/>
      <point x="879.8679245283018" y="633.2075471698114"/>
      <point x="825.1320754716982" y="669.4905660377359" type="curve" smooth="yes"/>
      <point x="787.6037735849056" y="696.3207547169811"/>
      <point x="767.3207547169811" y="706.6603773584906"/>
      <point x="737.5471698113207" y="706.6603773584906" type="curve" smooth="yes"/>
      <point x="706.9245283018868" y="706.6603773584906"/>
      <point x="692.188679245283" y="691.377358490566"/>
      <point x="680.5471698113206" y="649.056603773585" type="curve" smooth="yes"/>
      <point x="675.8490566037735" y="630.9622641509434"/>
      <point x="673.0" y="606.5283018867924"/>
      <point x="673.4528301886793" y="591.8867924528302" type="curve"/>
      <point x="763.6792452830189" y="533.1698113207547"/>
      <point x="869.2264150943397" y="425.3962264150943"/>
      <point x="925.1698113207548" y="331.3018867924529" type="curve"/>
      <point x="919.2641509433962" y="383.8490566037736" type="line"/>
      <point x="902.2641509433963" y="316.45283018867923" type="line"/>
      <point x="934.8679245283018" y="369.0" type="line"/>
      <point x="830.056603773585" y="270.6981132075472"/>
      <point x="675.3018867924528" y="169.50943396226413"/>
      <point x="555.4905660377359" y="116.2075471698113" type="curve"/>
      <point x="544.3018867924529" y="94.2264150943396"/>
      <point x="536.5094339622642" y="70.69811320754715"/>
      <point x="530.4150943396227" y="46.169811320754704" type="curve" smooth="yes"/>
      <point x="521.0188679245284" y="9.73584905660377"/>
      <point x="536.0566037735849" y="-15.698113207547177"/>
      <point x="561.4905660377358" y="-15.698113207547177" type="curve" smooth="yes"/>
      <point x="588.9245283018869" y="-15.698113207547177"/>
      <point x="623.9811320754717" y="-5.547169811320749"/>
      <point x="687.7169811320755" y="33.433962264150935" type="curve" smooth="yes"/>
      <point x="789.5471698113207" y="94.52830188679245"/>
      <point x="937.0188679245283" y="200.77358490566039"/>
    </contour>
    <contour>
      <point x="902.6603773584907" y="395.1509433962264" type="curve"/>
      <point x="807.0000000000001" y="522.7358490566038" type="line"/>
      <point x="797.4528301886793" y="483.54716981132077" type="line"/>
      <point x="679.5660377358491" y="517.4150943396227"/>
      <point x="572.0188679245284" y="525.8113207547169"/>
      <point x="419.9245283018868" y="525.8113207547169" type="curve" smooth="yes"/>
      <point x="243.0754716981132" y="525.8113207547169" type="line"/>
      <point x="235.2830188679245" y="510.9245283018868"/>
      <point x="225.7924528301887" y="483.1509433962264"/>
      <point x="222.24528301886795" y="469.1132075471698" type="curve" smooth="yes"/>
      <point x="207.60377358490567" y="412.24528301886795"/>
      <point x="217.15094339622644" y="386.66037735849056"/>
      <point x="274.96226415094344" y="386.66037735849056" type="curve"/>
      <point x="469.1509433962264" y="386.66037735849056" type="line" smooth="yes"/>
      <point x="645.9811320754717" y="386.66037735849056"/>
      <point x="825.1698113207547" y="388.35849056603774"/>
    </contour>
  </outline>
</glyph>
<glyph name="f.italic" format="2">
  <advance width="400.0"/>
  <outline>
    <contour>
      <point x="83.0754716981132" y="474.0" type="line"/>
      <point x="80.37735849056604" y="468.45283018867923"/>
      <point x="78.52830188679245" y="462.75471698113205"/>
      <point x="76.67924528301887" y="456.20754716981133" type="curve" smooth="yes"/>
      <point x="59.64150943396227" y="392.60377358490564"/>
      <point x="74.28301886792453" y="343.6415094339623"/>
      <point x="116.45283018867921" y="343.6415094339623" type="curve" smooth="yes"/>
      <point x="382.71698113207543" y="343.6415094339623" type="line"/>
      <point x="388.81132075471703" y="355.2830188679245"/>
      <point x="393.2075471698113" y="366.9245283018868"/>
      <point x="395.90566037735846" y="381.1132075471698" type="curve" smooth="yes"/>
      <point x="406.84905660377353" y="438.62264150943395"/>
      <point x="391.6603773584905" y="474.0"/>
      <point x="324.41509433962267" y="474.0" type="curve" smooth="yes"/>
    </contour>
    <contour>
      <point x="403.5849056603774" y="768.4905660377359" type="curve" smooth="yes"/>
      <point x="291.9811320754717" y="768.4905660377359"/>
      <point x="219.8490566037736" y="715.8301886792453"/>
      <point x="170.66037735849056" y="550.5094339622642" type="curve" smooth="yes"/>
      <point x="99.8679245283019" y="309.47169811320754"/>
      <point x="101.75471698113208" y="152.2830188679245"/>
      <point x="21.113207547169807" y="-50.13207547169813" type="curve" smooth="yes"/>
      <point x="-3.4339622641509493" y="-113.01886792452828"/>
      <point x="-24.830188679245282" y="-150.50943396226415"/>
      <point x="-51.886792452830186" y="-184.20754716981133" type="curve"/>
      <point x="-34.84905660377359" y="-195.30188679245282"/>
      <point x="-15.509433962264168" y="-200.0"/>
      <point x="14.169811320754725" y="-200.0" type="curve" smooth="yes"/>
      <point x="79.47169811320755" y="-200.0"/>
      <point x="121.0566037735849" y="-170.77358490566039"/>
      <point x="155.35849056603774" y="-89.67924528301887" type="curve" smooth="yes"/>
      <point x="232.11320754716982" y="96.60377358490561"/>
      <point x="233.37735849056602" y="278.7358490566038"/>
      <point x="296.8679245283019" y="525.9999999999999" type="curve" smooth="yes"/>
      <point x="311.622641509434" y="583.1698113207547"/>
      <point x="324.377358490566" y="610.0943396226414"/>
      <point x="342.33962264150944" y="628.0566037735849" type="curve" smooth="yes"/>
      <point x="356.0" y="641.7169811320755"/>
      <point x="373.1132075471698" y="645.7735849056604"/>
      <point x="389.7924528301887" y="645.7735849056604" type="curve" smooth="yes"/>
      <point x="408.3207547169812" y="645.7735849056604"/>
      <point x="421.54716981132077" y="641.2641509433963"/>
      <point x="428.1132075471698" y="634.4905660377359" type="curve"/>
      <point x="424.90566037735846" y="615.1509433962265"/>
      <point x="419.188679245283" y="596.9811320754717"/>
      <point x="405.5094339622641" y="575.3207547169811" type="curve"/>
      <point x="405.5094339622641" y="570.1698113207548" type="line"/>
      <point x="413.0566037735849" y="568.0188679245284"/>
      <point x="422.60377358490575" y="566.0188679245283"/>
      <point x="431.3018867924529" y="566.0188679245283" type="curve" smooth="yes"/>
      <point x="476.2452830188679" y="566.0188679245283"/>
      <point x="508.3962264150943" y="583.188679245283"/>
      <point x="521.6981132075471" y="624.5471698113207" type="curve" smooth="yes"/>
      <point x="524.8490566037735" y="634.1509433962265" type="line"/>
      <point x="534.6981132075472" y="664.6981132075473"/>
      <point x="530.245283018868" y="707.6415094339621"/>
      <point x="502.54716981132077" y="735.0377358490566" type="curve" smooth="yes"/>
      <point x="481.9433962264151" y="755.6415094339623"/>
      <point x="449.58490566037733" y="768.4905660377359"/>
    </contour>
  </outline>
</glyph>
<glyph name="g.italic" format="2">
  <advance width="600.0"/>
  <outline>
    <contour>
      <point x="112.54716981132077" y="70.66037735849058" type="curve" smooth="yes"/>
      <point x="98.45283018867927" y="14.830188679245285"/>
      <point x="144.16981132075472" y="-37.96226415094339"/>
      <point x="216.81132075471697" y="-42.66037735849056" type="curve" smooth="yes"/>
      <point x="315.50943396226415" y="-49.35849056603773" type="line" smooth="yes"/>
      <point x="341.60377358490564" y="-50.660377358490564"/>
      <point x="348.3207547169811" y="-69.13207547169812"/>
      <point x="342.9622641509434" y="-89.66037735849056" type="curve" smooth="yes"/>
      <point x="340.9622641509434" y="-97.50943396226415" type="line" smooth="yes"/>
      <point x="336.66037735849056" y="-113.41509433962263"/>
      <point x="330.7547169811321" y="-132.92452830188682"/>
      <point x="321.1509433962264" y="-144.37735849056605" type="curve" smooth="yes"/>
      <point x="272.33962264150944" y="-156.7924528301887"/>
      <point x="220.77358490566039" y="-162.1509433962264"/>
      <point x="163.24528301886795" y="-162.1509433962264" type="curve"/>
      <point x="149.188679245283" y="-162.1509433962264" type="line" smooth="yes"/>
      <point x="84.73584905660377" y="-162.1509433962264"/>
      <point x="64.28301886792453" y="-136.77358490566036"/>
      <point x="75.43396226415094" y="-97.9622641509434" type="curve" smooth="yes"/>
      <point x="77.43396226415094" y="-90.81132075471697" type="line" smooth="yes"/>
      <point x="86.49056603773585" y="-57.830188679245275"/>
      <point x="116.86792452830187" y="-28.320754716981128"/>
      <point x="169.9622641509434" y="-26.509433962264144" type="curve"/>
      <point x="124.33962264150944" y="23.377358490566042" type="line"/>
      <point x="115.49056603773585" y="10.075471698113214" type="line"/>
      <point x="12.339622641509452" y="5.86792452830189"/>
      <point x="-41.566037735849044" y="-32.88679245283018"/>
      <point x="-57.62264150943395" y="-93.75471698113208" type="curve" smooth="yes"/>
      <point x="-60.47169811320754" y="-105.0" type="line" smooth="yes"/>
      <point x="-78.47169811320754" y="-176.64150943396228"/>
      <point x="-22.9811320754717" y="-255.0"/>
      <point x="127.58490566037737" y="-255.0" type="curve" smooth="yes"/>
      <point x="137.9433962264151" y="-255.0" type="line" smooth="yes"/>
      <point x="354.4528301886792" y="-255.0"/>
      <point x="450.4716981132075" y="-193.4528301886793"/>
      <point x="476.1698113207547" y="-83.71698113207549" type="curve" smooth="yes"/>
      <point x="479.01886792452825" y="-71.47169811320755" type="line" smooth="yes"/>
      <point x="496.566037735849" y="2.264150943396219"/>
      <point x="448.03773584905656" y="57.01886792452829"/>
      <point x="379.1132075471698" y="62.169811320754704" type="curve" smooth="yes"/>
      <point x="267.37735849056605" y="70.86792452830186" type="line" smooth="yes"/>
      <point x="245.50943396226413" y="73.01886792452828"/>
      <point x="236.50943396226415" y="88.71698113207546"/>
      <point x="241.6603773584906" y="109.1698113207547" type="curve" smooth="yes"/>
      <point x="246.96226415094338" y="133.22641509433961"/>
      <point x="261.07547169811323" y="157.0943396226415"/>
      <point x="277.1509433962264" y="169.0566037735849" type="curve"/>
      <point x="200.56603773584905" y="177.84905660377362" type="line"/>
      <point x="200.8679245283019" y="163.0" type="line"/>
      <point x="149.64150943396228" y="144.0"/>
      <point x="121.54716981132077" y="109.0566037735849"/>
    </contour>
    <contour>
      <point x="375.3018867924528" y="446.0566037735849" type="line"/>
      <point x="406.7735849056604" y="415.3962264150943"/>
      <point x="409.94339622641513" y="378.56603773584914"/>
      <point x="400.13207547169816" y="340.28301886792457" type="curve" smooth="yes"/>
      <point x="397.28301886792457" y="329.0377358490566" type="line" smooth="yes"/>
      <point x="385.3207547169812" y="282.84905660377365"/>
      <point x="343.69811320754724" y="257.3396226415094"/>
      <point x="280.50943396226415" y="257.3396226415094" type="curve" smooth="yes"/>
      <point x="239.50943396226415" y="257.3396226415094"/>
      <point x="216.5471698113207" y="262.64150943396226"/>
      <point x="192.43396226415092" y="274.54716981132077" type="curve" smooth="yes"/>
      <point x="183.9056603773585" y="293.1132075471698"/>
      <point x="184.60377358490564" y="313.39622641509436"/>
      <point x="189.50943396226415" y="333.0188679245283" type="curve" smooth="yes"/>
      <point x="191.50943396226415" y="340.8679245283019" type="line" smooth="yes"/>
      <point x="208.32075471698113" y="405.30188679245276"/>
      <point x="258.6415094339622" y="432.8679245283019"/>
      <point x="346.71698113207543" y="432.8679245283019" type="curve"/>
      <point x="460.1509433962264" y="432.8679245283019"/>
      <point x="511.5471698113207" y="421.11320754716985"/>
      <point x="549.3962264150944" y="421.11320754716985" type="curve" smooth="yes"/>
      <point x="582.5283018867924" y="421.11320754716985"/>
      <point x="602.566037735849" y="452.54716981132077"/>
      <point x="614.3584905660377" y="496.5660377358491" type="curve" smooth="yes"/>
      <point x="618.9056603773585" y="514.6037735849056"/>
      <point x="620.6037735849056" y="532.0377358490566"/>
      <point x="618.9056603773585" y="541.2830188679246" type="curve"/>
      <point x="541.5849056603773" y="547.7358490566038"/>
      <point x="470.1320754716981" y="551.1886792452831"/>
      <point x="383.83018867924534" y="551.1886792452831" type="curve"/>
      <point x="208.9622641509434" y="551.1886792452831"/>
      <point x="108.22641509433963" y="491.377358490566"/>
      <point x="78.67924528301889" y="375.3962264150943" type="curve" smooth="yes"/>
      <point x="76.52830188679246" y="366.94339622641513" type="line" smooth="yes"/>
      <point x="47.67924528301888" y="254.9056603773585"/>
      <point x="134.9622641509434" y="158.45283018867923"/>
      <point x="271.66037735849056" y="160.1509433962264" type="curve" smooth="yes"/>
      <point x="397.71698113207543" y="160.1509433962264"/>
      <point x="483.1509433962264" y="192.81132075471697"/>
      <point x="509.2075471698113" y="286.0754716981132" type="curve" smooth="yes"/>
      <point x="512.2075471698113" y="296.9245283018868" type="line" smooth="yes"/>
      <point x="524.7169811320755" y="342.84905660377353"/>
      <point x="504.4716981132076" y="391.75471698113205"/>
      <point x="462.8679245283019" y="421.8679245283019" type="curve" smooth="yes"/>
      <point x="467.1698113207548" y="438.0188679245283" type="line"/>
    </contour>
  </outline>
</glyph>
<glyph name="g.mono" format="2">
  <advance width="600.0"/>
  <anchor x="268.1320754716981" y="538.6981132075472" name="top"/>
  <outline>
    <contour>
      <point x="450.50943396226415" y="489.3962264150943" type="line"/>
      <point x="519.1698113207547" y="461.24528301886795" type="line"/>
      <point x="519.9245283018868" y="490.5849056603774" type="line"/>
      <point x="558.9811320754716" y="510.45283018867923" type="line" smooth="yes"/>
      <point x="615.5849056603773" y="539.7735849056603"/>
      <point x="639.320754716981" y="567.7547169811322"/>
      <point x="645.622641509434" y="595.3018867924529" type="curve"/>
      <point x="646.9245283018867" y="601.2075471698114" type="line" smooth="yes"/>
      <point x="660.8679245283017" y="654.2264150943396"/>
      <point x="621.188679245283" y="669.8679245283018"/>
      <point x="559.2830188679245" y="669.8679245283018" type="curve"/>
      <point x="547.1886792452831" y="669.8679245283018"/>
      <point x="535.3962264150944" y="668.8679245283018"/>
      <point x="522.9056603773585" y="666.8679245283018" type="curve"/>
      <point x="523.7547169811322" y="654.7735849056603"/>
      <point x="522.056603773585" y="643.1320754716982"/>
      <point x="518.3584905660379" y="629.188679245283" type="curve" smooth="yes"/>
      <point x="513.5094339622643" y="609.2452830188679"/>
      <point x="507.9056603773585" y="595.9433962264152"/>
      <point x="496.58490566037733" y="576.6792452830189" type="curve" smooth="yes"/>
    </contour>
    <contour>
      <point x="348.0377358490567" y="549.5849056603773" type="curve" smooth="yes"/>
      <point x="205.30188679245282" y="549.5849056603773"/>
      <point x="118.26415094339623" y="488.8301886792452"/>
      <point x="88.86792452830188" y="379.39622641509425" type="curve" smooth="yes"/>
      <point x="85.86792452830188" y="369.24528301886795" type="line" smooth="yes"/>
      <point x="55.32075471698113" y="254.6603773584906"/>
      <point x="136.0188679245283" y="151.66037735849056"/>
      <point x="275.15094339622647" y="151.66037735849056" type="curve" smooth="yes"/>
      <point x="423.7358490566038" y="151.66037735849056"/>
      <point x="516.867924528302" y="204.75471698113208"/>
      <point x="548.4150943396227" y="327.58490566037733" type="curve" smooth="yes"/>
      <point x="550.5660377358491" y="336.0377358490566" type="line" smooth="yes"/>
      <point x="580.7169811320755" y="455.8301886792453"/>
      <point x="493.1886792452831" y="549.5849056603773"/>
    </contour>
    <contour>
      <point x="344.6981132075472" y="436.35849056603774" type="curve" smooth="yes"/>
      <point x="380.7547169811321" y="436.35849056603774"/>
      <point x="408.8679245283019" y="431.60377358490564"/>
      <point x="432.67924528301893" y="421.33962264150944" type="curve" smooth="yes"/>
      <point x="442.5471698113208" y="400.07547169811323"/>
      <point x="442.8490566037736" y="373.6981132075472"/>
      <point x="436.64150943396226" y="345.377358490566" type="curve" smooth="yes"/>
      <point x="434.64150943396226" y="336.67924528301893" type="line" smooth="yes"/>
      <point x="420.1320754716981" y="275.20754716981133"/>
      <point x="375.1132075471698" y="255.64150943396228"/>
      <point x="303.4339622641509" y="255.64150943396228" type="curve" smooth="yes"/>
      <point x="263.28301886792457" y="255.64150943396228"/>
      <point x="232.67924528301887" y="261.79245283018867"/>
      <point x="206.77358490566039" y="272.6981132075472" type="curve" smooth="yes"/>
      <point x="195.79245283018867" y="292.26415094339626"/>
      <point x="195.64150943396223" y="316.7924528301887"/>
      <point x="202.24528301886792" y="341.50943396226415" type="curve" smooth="yes"/>
      <point x="204.24528301886792" y="348.50943396226415" type="line" smooth="yes"/>
      <point x="221.30188679245282" y="409.9433962264152"/>
      <point x="266.77358490566036" y="436.35849056603774"/>
    </contour>
    <contour>
      <point x="194.73584905660377" y="187.69811320754715" type="line"/>
      <point x="193.83018867924528" y="158.60377358490564" type="line"/>
      <point x="147.69811320754718" y="140.05660377358492"/>
      <point x="121.30188679245285" y="107.26415094339623"/>
      <point x="113.45283018867926" y="72.62264150943396" type="curve" smooth="yes"/>
      <point x="98.7547169811321" y="14.9811320754717"/>
      <point x="146.28301886792454" y="-37.811320754716974"/>
      <point x="218.32075471698113" y="-42.50943396226414" type="curve" smooth="yes"/>
      <point x="315.9622641509434" y="-49.0566037735849" type="line" smooth="yes"/>
      <point x="341.4528301886793" y="-50.35849056603773"/>
      <point x="348.1698113207547" y="-69.28301886792453"/>
      <point x="342.9622641509434" y="-89.81132075471699" type="curve" smooth="yes"/>
      <point x="340.9622641509434" y="-97.81132075471699" type="line" smooth="yes"/>
      <point x="336.811320754717" y="-113.56603773584905"/>
      <point x="330.15094339622647" y="-129.5849056603774"/>
      <point x="319.64150943396226" y="-141.64150943396226" type="curve" smooth="yes"/>
      <point x="271.13207547169816" y="-153.60377358490567"/>
      <point x="222.58490566037733" y="-162.30188679245282"/>
      <point x="163.54716981132077" y="-162.30188679245282" type="curve"/>
      <point x="150.24528301886792" y="-162.30188679245282" type="line" smooth="yes"/>
      <point x="84.43396226415092" y="-162.30188679245282"/>
      <point x="63.83018867924528" y="-136.16981132075472"/>
      <point x="75.43396226415094" y="-97.05660377358491" type="curve" smooth="yes"/>
      <point x="77.43396226415094" y="-90.0566037735849" type="line" smooth="yes"/>
      <point x="86.94339622641509" y="-56.622641509433954"/>
      <point x="119.43396226415095" y="-27.867924528301877"/>
      <point x="174.9433962264151" y="-27.415094339622634" type="curve"/>
      <point x="129.24528301886792" y="29.169811320754718" type="line"/>
      <point x="116.60377358490565" y="9.320754716981137" type="line"/>
      <point x="14.603773584905666" y="7.679245283018874"/>
      <point x="-41.26415094339622" y="-31.830188679245275"/>
      <point x="-57.169811320754704" y="-92.39622641509435" type="curve" smooth="yes"/>
      <point x="-60.018867924528294" y="-103.64150943396227" type="line" smooth="yes"/>
      <point x="-78.0188679245283" y="-175.13207547169813"/>
      <point x="-25.698113207547177" y="-255.0"/>
      <point x="131.20754716981133" y="-255.0" type="curve" smooth="yes"/>
      <point x="141.2641509433962" y="-255.0" type="line" smooth="yes"/>
      <point x="357.9245283018868" y="-255.0"/>
      <point x="451.22641509433964" y="-191.03773584905662"/>
      <point x="476.0188679245283" y="-85.22641509433964" type="curve" smooth="yes"/>
      <point x="478.8679245283019" y="-72.9811320754717" type="line" smooth="yes"/>
      <point x="496.4150943396226" y="0.6037735849056509"/>
      <point x="447.433962264151" y="57.169811320754704"/>
      <point x="378.8113207547169" y="62.32075471698112" type="curve" smooth="yes"/>
      <point x="267.0754716981132" y="70.71698113207545" type="line" smooth="yes"/>
      <point x="245.05660377358492" y="72.71698113207546"/>
      <point x="236.66037735849056" y="89.1698113207547"/>
      <point x="242.1132075471698" y="110.52830188679243" type="curve" smooth="yes"/>
      <point x="247.56603773584902" y="135.18867924528303"/>
      <point x="263.22641509433964" y="162.58490566037736"/>
      <point x="297.03773584905656" y="186.0377358490566" type="curve"/>
    </contour>
  </outline>
</glyph>
<glyph name="l.mono" format="2">
  <advance width="350.0"/>
  <anchor x="270.9433962264151" y="742.7358490566038" name="top"/>
  <anchor x="113.37735849056604" y="-1.0" name="bottom"/>
  <anchor x="346.52830188679246" y="400.0" name="dot"/>
  <anchor x="439.811320754717" y="711.0" name="caronslovak"/>
  <anchor x="205.0188679245283" y="375.07547169811323" name="slash"/>
  <outline>
    <contour>
      <point x="7.320754716981128" y="130.3584905660377" type="line"/>
      <point x="2.6226415094339615" y="122.96226415094337"/>
      <point x="-1.075471698113212" y="113.86792452830186"/>
      <point x="-3.924528301886795" y="100.77358490566036" type="curve" smooth="yes"/>
      <point x="-17.37193023367924" y="37.968728091801886"/>
      <point x="6.018867924528294" y="-0.8490566037735847"/>
      <point x="82.45283018867923" y="-0.8490566037735847" type="curve" smooth="yes"/>
      <point x="265.0" y="-0.8490566037735847" type="line"/>
      <point x="272.94339622641513" y="11.339622641509434"/>
      <point x="277.2652368764246" y="23.230758826452828"/>
      <point x="280.8867924528302" y="37.71698113207547" type="curve" smooth="yes"/>
      <point x="294.07267941216605" y="91.11159870813583"/>
      <point x="275.58490566037733" y="130.3584905660377"/>
      <point x="216.92452830188674" y="130.3584905660377" type="curve"/>
    </contour>
    <contour>
      <point x="163.9433962264151" y="750.0" type="curve"/>
      <point x="151.45283018867926" y="733.9622641509435"/>
      <point x="141.66037735849056" y="712.5283018867925"/>
      <point x="135.41509433962264" y="687.3962264150944" type="curve" smooth="yes"/>
      <point x="121.22641509433961" y="632.1886792452831"/>
      <point x="136.4150943396226" y="605.0566037735849"/>
      <point x="160.9056603773585" y="605.0566037735849" type="curve" smooth="yes"/>
      <point x="183.811320754717" y="605.0566037735849"/>
      <point x="206.24528301886792" y="610.811320754717"/>
      <point x="221.20754716981136" y="621.5094339622642" type="curve"/>
      <point x="226.05660377358492" y="618.0566037735849" type="line"/>
      <point x="194.41509433962267" y="477.5849056603774"/>
      <point x="118.9245283018868" y="366.3396226415095"/>
      <point x="94.01886792452831" y="224.71698113207543" type="curve" smooth="yes"/>
      <point x="86.77358490566039" y="179.64150943396226"/>
      <point x="89.62264150943396" y="158.24528301886792"/>
      <point x="100.8679245283019" y="135.35849056603772" type="curve"/>
      <point x="85.9245283018868" y="104.77358490566036" type="line"/>
      <point x="209.58490566037736" y="104.77358490566036" type="line"/>
      <point x="225.88679245283018" y="290.98113207547163"/>
      <point x="339.71698113207543" y="456.5471698113207"/>
      <point x="370.99999999999994" y="646.1509433962265" type="curve" smooth="yes"/>
      <point x="382.18867924528297" y="700.811320754717"/>
      <point x="348.6603773584905" y="760.0"/>
      <point x="272.50943396226415" y="760.0" type="curve"/>
      <point x="236.80069093808302" y="760.0"/>
      <point x="191.81132075471697" y="756.8490566037736"/>
    </contour>
  </outline>
</glyph>
<glyph name="numbersign_numbersign.code" format="2">
  <advance width="1200.0"/>
  <outline>
    <contour>
      <point x="479.2641509433962" y="425.13207547169804" type="line"/>
      <point x="822.3962264150944" y="425.13207547169804" type="line"/>
      <point x="822.3962264150944" y="542.4528301886793" type="line"/>
      <point x="479.2641509433962" y="542.4528301886793" type="line"/>
    </contour>
    <contour>
      <point x="403.22641509433964" y="158.15094339622644" type="line"/>
      <point x="747.867924528302" y="158.15094339622644" type="line"/>
      <point x="747.867924528302" y="275.47169811320754" type="line"/>
      <point x="403.22641509433964" y="275.47169811320754" type="line"/>
    </contour>
    <component base="numbersign" xOffset="16.981132075471695"/>
    <component base="numbersign" xOffset="583.0188679245283"/>
  </outline>
</glyph>
<glyph name="numbersign_numbersign_numbersign.code" format="2">
  <advance width="1800.0"/>
  <outline>
    <contour>
      <point x="547.188679245283" y="425.13207547169804" type="line"/>
      <point x="847.8679245283018" y="425.13207547169804" type="line"/>
      <point x="847.8679245283018" y="542.4528301886793" type="line"/>
      <point x="547.188679245283" y="542.4528301886793" type="line"/>
    </contour>
    <contour>
      <point x="420.20754716981133" y="158.15094339622644" type="line"/>
      <point x="739.377358490566" y="158.15094339622644" type="line"/>
      <point x="739.377358490566" y="275.47169811320754" type="line"/>
      <point x="420.20754716981133" y="275.47169811320754" type="line"/>
    </contour>
    <contour>
      <point x="1138.698113207547" y="425.13207547169804" type="line"/>
      <point x="1430.8867924528302" y="425.13207547169804" type="line"/>
      <point x="1430.8867924528302" y="542.4528301886793" type="line"/>
      <point x="1138.698113207547" y="542.4528301886793" type="line"/>
    </contour>
    <contour>
      <point x="994.7358490566039" y="158.15094339622644" type="line"/>
      <point x="1322.3962264150946" y="158.15094339622644" type="line"/>
      <point x="1322.3962264150946" y="275.47169811320754" type="line"/>
      <point x="994.7358490566039" y="275.47169811320754" type="line"/>
    </contour>
    <component base="numbersign" xOffset="16.981132075471695"/>
    <component base="numbersign" xOffset="600.0"/>
    <component base="numbersign" xOffset="1183.0188679245282"/>
  </outline>
</glyph>
<glyph name="parenleft.case" format="2">
  <advance width="400.0"/>
  <outline>
    <contour>
      <point x="308.6981132075472" y="719.0943396226415" type="curve" smooth="yes"/>
      <point x="194.33962264150946" y="639.3962264150942"/>
      <point x="127.45283018867923" y="525.566037735849"/>
      <point x="91.49056603773586" y="371.39622641509436" type="curve" smooth="yes"/>
      <point x="89.33962264150944" y="362.09433962264154" type="line" smooth="yes"/>
      <point x="54.981132075471706" y="211.33962264150944"/>
      <point x="74.45283018867924" y="28.132075471698116"/>
      <point x="150.7169811320755" y="-43.339622641509436" type="curve" smooth="yes"/>
      <point x="178.15094339622644" y="-69.0754716981132"/>
      <point x="198.64150943396228" y="-78.32075471698113"/>
      <point x="231.7169811320755" y="-78.32075471698113" type="curve" smooth="yes"/>
      <point x="267.5471698113208" y="-78.32075471698113"/>
      <point x="290.9245283018868" y="-66.52830188679245"/>
      <point x="315.66037735849056" y="-45.24528301886792" type="curve"/>
      <point x="316.66037735849056" y="-39.54716981132076" type="line"/>
      <point x="217.24528301886792" y="62.20754716981132"/>
      <point x="204.62264150943395" y="200.6415094339622"/>
      <point x="236.88679245283018" y="340.8679245283019" type="curve" smooth="yes"/>
      <point x="239.03773584905662" y="350.1698113207547" type="line" smooth="yes"/>
      <point x="271.1509433962264" y="489.2452830188679"/>
      <point x="357.54716981132077" y="613.7924528301888"/>
      <point x="505.3207547169811" y="714.2452830188679" type="curve"/>
      <point x="507.1698113207547" y="719.9433962264152" type="line"/>
      <point x="486.6792452830189" y="741.377358490566"/>
      <point x="454.5471698113207" y="753.0188679245283"/>
      <point x="411.52830188679246" y="753.0188679245283" type="curve" smooth="yes"/>
      <point x="375.8490566037736" y="753.0188679245283"/>
      <point x="346.3207547169811" y="744.9245283018868"/>
    </contour>
  </outline>
</glyph>
<glyph name="zerosuperior.sans" format="2">
  <advance width="600.0"/>
  <outline>
    <contour>
      <point x="409.94339622641513" y="738.6792452830189" type="curve" smooth="yes"/>
      <point x="325.3018867924529" y="738.6792452830189"/>
      <point x="259.0566037735849" y="672.9245283018869"/>
      <point x="230.56603773584905" y="559.0377358490566" type="curve" smooth="yes"/>
      <point x="220.92452830188682" y="521.8679245283018" type="line" smooth="yes"/>
      <point x="197.37735849056605" y="427.05660377358487"/>
      <point x="236.52830188679246" y="360.3207547169811"/>
      <point x="329.60377358490564" y="360.3207547169811" type="curve" smooth="yes"/>
      <point x="412.03773584905656" y="360.3207547169811"/>
      <point x="477.49056603773585" y="414.2075471698113"/>
      <point x="504.0377358490566" y="517.7169811320755" type="curve" smooth="yes"/>
      <point x="513.8301886792453" y="554.6415094339623" type="line" smooth="yes"/>
      <point x="538.5283018867925" y="657.3962264150944"/>
      <point x="504.4339622641509" y="738.6792452830189"/>
    </contour>
    <contour>
      <point x="401.7547169811321" y="662.7169811320755" type="curve" smooth="yes"/>
      <point x="418.35849056603774" y="662.7169811320755"/>
      <point x="431.5094339622642" y="660.4150943396227"/>
      <point x="439.1132075471698" y="656.3584905660377" type="curve" smooth="yes"/>
      <point x="448.1132075471698" y="639.3962264150942"/>
      <point x="447.86792452830184" y="610.4905660377358"/>
      <point x="438.2641509433962" y="573.0754716981132" type="curve" smooth="yes"/>
      <point x="426.0754716981132" y="527.0188679245283" type="line" smooth="yes"/>
      <point x="407.32075471698107" y="457.09433962264154"/>
      <point x="376.6981132075472" y="436.2830188679245"/>
      <point x="333.20754716981133" y="436.2830188679245" type="curve" smooth="yes"/>
      <point x="322.49056603773585" y="436.2830188679245"/>
      <point x="314.9811320754717" y="437.18867924528297"/>
      <point x="306.37735849056605" y="440.99999999999994" type="curve" smooth="yes"/>
      <point x="295.433962264151" y="455.2075471698113"/>
      <point x="292.433962264151" y="483.86792452830184"/>
      <point x="299.0377358490566" y="509.433962264151" type="curve" smooth="yes"/>
      <point x="312.9245283018868" y="562.433962264151" type="line" smooth="yes"/>
      <point x="330.8301886792453" y="629.6603773584907"/>
      <point x="361.64150943396226" y="662.7169811320755"/>
    </contour>
    <contour>
      <point x="474.90566037735846" y="657.8490566037735" type="line"/>
      <point x="419.9056603773585" y="618.8490566037735"/>
      <point x="386.4528301886793" y="594.3962264150944"/>
      <point x="357.8490566037736" y="572.6415094339623" type="curve" smooth="yes"/>
      <point x="332.98113207547163" y="554.0754716981132"/>
      <point x="311.92452830188677" y="532.3207547169811"/>
      <point x="297.2264150943396" y="511.3207547169811" type="curve"/>
      <point x="322.92452830188677" y="525.3207547169811" type="line"/>
      <point x="280.2264150943396" y="525.3207547169811" type="line"/>
      <point x="264.8301886792453" y="464.4339622641509" type="line"/>
      <point x="309.377358490566" y="482.4339622641509"/>
      <point x="351.0754716981131" y="504.73584905660374"/>
      <point x="385.88679245283015" y="529.5471698113208" type="curve" smooth="yes"/>
      <point x="409.0943396226415" y="545.9056603773585"/>
      <point x="430.41509433962267" y="569.4150943396226"/>
      <point x="443.92452830188677" y="596.6226415094341" type="curve"/>
      <point x="416.8679245283019" y="581.6226415094341" type="line"/>
      <point x="456.8679245283019" y="581.6226415094341" type="line"/>
    </contour>
  </outline>
</glyph>
